<svg viewBox="0 0 882.3333740234375 400" xmlns="http://www.w3.org/2000/svg"><g><g><g><g><g><line x1="50" y1="324.48641983508884" x2="45" y2="324.48641983508884" style="visibility: inherit;" fill="rgb(0, 0, 0)" stroke="rgb(204, 204, 204)" stroke-width="1px"></line><line x1="50" y1="267.95750138493133" x2="45" y2="267.95750138493133" style="visibility: inherit;" fill="rgb(0, 0, 0)" stroke="rgb(204, 204, 204)" stroke-width="1px"></line><line x1="50" y1="211.42858293477386" x2="45" y2="211.42858293477386" style="visibility: inherit;" fill="rgb(0, 0, 0)" stroke="rgb(204, 204, 204)" stroke-width="1px"></line><line x1="50" y1="154.89966448461632" x2="45" y2="154.89966448461632" style="visibility: inherit;" fill="rgb(0, 0, 0)" stroke="rgb(204, 204, 204)" stroke-width="1px"></line><line x1="50" y1="98.37074603445882" x2="45" y2="98.37074603445882" style="visibility: inherit;" fill="rgb(0, 0, 0)" stroke="rgb(204, 204, 204)" stroke-width="1px"></line><line x1="50" y1="41.84182758430154" x2="45" y2="41.84182758430154" style="visibility: inherit;" fill="rgb(0, 0, 0)" stroke="rgb(204, 204, 204)" stroke-width="1px"></line></g><g transform="translate(40, 0)"><text x="0" y="324.48641983508884" dx="0em" dy="0.3em" style="text-anchor: end; visibility: inherit; font-family: Roboto, sans-serif; font-size: 12px; font-weight: 200;" fill="rgb(33, 33, 33)" stroke="none" stroke-width="1px">1.15</text><text x="0" y="267.95750138493133" dx="0em" dy="0.3em" style="text-anchor: end; visibility: inherit; font-family: Roboto, sans-serif; font-size: 12px; font-weight: 200;" fill="rgb(33, 33, 33)" stroke="none" stroke-width="1px">1.2</text><text x="0" y="211.42858293477386" dx="0em" dy="0.3em" style="text-anchor: end; visibility: inherit; font-family: Roboto, sans-serif; font-size: 12px; font-weight: 200;" fill="rgb(33, 33, 33)" stroke="none" stroke-width="1px">1.25</text><text x="0" y="154.89966448461632" dx="0em" dy="0.3em" style="text-anchor: end; visibility: inherit; font-family: Roboto, sans-serif; font-size: 12px; font-weight: 200;" fill="rgb(33, 33, 33)" stroke="none" stroke-width="1px">1.3</text><text x="0" y="98.37074603445882" dx="0em" dy="0.3em" style="text-anchor: end; visibility: inherit; font-family: Roboto, sans-serif; font-size: 12px; font-weight: 200;" fill="rgb(33, 33, 33)" stroke="none" stroke-width="1px">1.35</text><text x="0" y="41.84182758430154" dx="0em" dy="0.3em" style="text-anchor: end; visibility: inherit; font-family: Roboto, sans-serif; font-size: 12px; font-weight: 200;" fill="rgb(33, 33, 33)" stroke="none" stroke-width="1px">1.4</text></g><line x1="50" y1="0" x2="50" y2="377" fill="rgb(0, 0, 0)" stroke="rgb(204, 204, 204)" stroke-width="1px"></line></g></g><g transform="translate(50, 0)" clip-path="url(#clip_0)"><clipPath id="clip_0"><rect width="832" height="377"></rect></clipPath><g><g><g><line x1="5.108336033111119" y1="0" x2="5.108336033111119" y2="377" fill="rgb(0, 0, 0)" stroke="rgb(66, 66, 66)" stroke-width="1px" opacity="0.25"></line><line x1="83.5561915972068" y1="0" x2="83.5561915972068" y2="377" fill="rgb(0, 0, 0)" stroke="rgb(66, 66, 66)" stroke-width="1px" opacity="0.25"></line><line x1="162.00404716130248" y1="0" x2="162.00404716130248" y2="377" fill="rgb(0, 0, 0)" stroke="rgb(66, 66, 66)" stroke-width="1px" opacity="0.25"></line><line x1="240.45190272539818" y1="0" x2="240.45190272539818" y2="377" fill="rgb(0, 0, 0)" stroke="rgb(66, 66, 66)" stroke-width="1px" opacity="0.25"></line><line x1="318.89975828949383" y1="0" x2="318.89975828949383" y2="377" fill="rgb(0, 0, 0)" stroke="rgb(66, 66, 66)" stroke-width="1px" opacity="0.25"></line><line x1="397.3476138535895" y1="0" x2="397.3476138535895" y2="377" fill="rgb(0, 0, 0)" stroke="rgb(66, 66, 66)" stroke-width="1px" opacity="0.25"></line><line x1="475.7954694176852" y1="0" x2="475.7954694176852" y2="377" fill="rgb(0, 0, 0)" stroke="rgb(66, 66, 66)" stroke-width="1px" opacity="0.25"></line><line x1="554.2433249817809" y1="0" x2="554.2433249817809" y2="377" fill="rgb(0, 0, 0)" stroke="rgb(66, 66, 66)" stroke-width="1px" opacity="0.25"></line><line x1="632.6911805458766" y1="0" x2="632.6911805458766" y2="377" fill="rgb(0, 0, 0)" stroke="rgb(66, 66, 66)" stroke-width="1px" opacity="0.25"></line><line x1="711.1390361099722" y1="0" x2="711.1390361099722" y2="377" fill="rgb(0, 0, 0)" stroke="rgb(66, 66, 66)" stroke-width="1px" opacity="0.25"></line><line x1="789.5868916740679" y1="0" x2="789.5868916740679" y2="377" fill="rgb(0, 0, 0)" stroke="rgb(66, 66, 66)" stroke-width="1px" opacity="0.25"></line></g><g><line x1="0" y1="324.48641983508884" x2="832.333" y2="324.48641983508884" fill="rgb(0, 0, 0)" stroke="rgb(66, 66, 66)" stroke-width="1px" opacity="0.25"></line><line x1="0" y1="267.95750138493133" x2="832.333" y2="267.95750138493133" fill="rgb(0, 0, 0)" stroke="rgb(66, 66, 66)" stroke-width="1px" opacity="0.25"></line><line x1="0" y1="211.42858293477386" x2="832.333" y2="211.42858293477386" fill="rgb(0, 0, 0)" stroke="rgb(66, 66, 66)" stroke-width="1px" opacity="0.25"></line><line x1="0" y1="154.89966448461632" x2="832.333" y2="154.89966448461632" fill="rgb(0, 0, 0)" stroke="rgb(66, 66, 66)" stroke-width="1px" opacity="0.25"></line><line x1="0" y1="98.37074603445882" x2="832.333" y2="98.37074603445882" fill="rgb(0, 0, 0)" stroke="rgb(66, 66, 66)" stroke-width="1px" opacity="0.25"></line><line x1="0" y1="41.84182758430154" x2="832.333" y2="41.84182758430154" fill="rgb(0, 0, 0)" stroke="rgb(66, 66, 66)" stroke-width="1px" opacity="0.25"></line></g></g></g><g><g><line x1="0" y1="1624.6515441887102" x2="832.333" y2="1624.6515441887102" fill="rgb(0, 0, 0)" stroke="rgb(153, 153, 153)" stroke-width="1.5px"></line></g></g><g><g><line x1="5.108336033111119" y1="0" x2="5.108336033111119" y2="377" fill="rgb(0, 0, 0)" stroke="rgb(153, 153, 153)" stroke-width="1.5px"></line></g></g><g><g><g><g><g><path stroke="rgb(255, 112, 67)" stroke-width="2px" d="M6.285053866572554,-3.2294469362491873L7.069532422213511,36.66078668998739L7.46177170003399,71.64425186479477L7.854010977854467,110.71274771502151L8.246250255674946,154.68210062149436L8.638489533495425,188.6290220909919L9.030728811315903,212.37439949304164L9.422968089136381,249.0892928787827L9.815207366956859,266.7822710044416L10.207446644777338,277.3538613572726L10.599685922597816,298.1584994435845L10.991925200418295,315.83136953883434L11.384164478238773,333.95589463085673L11.776403756059251,321.7228157786115L12.16864303387973,332.018407653229L12.560882311700208,352.57600087521183L12.953121589520688,344.49116774967325L13.345360867341165,362.6281303899505L13.737600145161643,364.14197604607006L14.129839422982123,380.9487984775302L14.522078700802602,359.27352869480313L14.914317978623078,357.8827244455516L15.698796534264034,341.20146606819907L16.87551436772547,343.04000833571706L17.26775364554595,307.22303219220044L17.659992923366428,324.56735984384136L18.052232201186907,321.05207238923447L18.444471479007387,322.122200265607L19.228950034648342,312.3596650816793L19.621189312468818,311.55633217832633L20.013428590289298,315.7011197856747L20.405667868109777,321.13073326548306L20.797907145930253,289.51335980380287L21.582385701571212,270.55986387061057L21.97462497939169,280.38567970438567L22.36686425721217,290.5632006830004L22.759103535032647,303.701433374572L23.151342812853127,316.20442129225324L23.543582090673603,319.5351835832554L24.32806064631456,314.7745985185764L24.720299924135038,309.83602077868926L25.504778479775997,320.41980095169936L25.897017757596476,291.3967981586L26.289257035416952,296.7398302308765L26.681496313237435,280.5016500559087L27.07373559105791,276.9080602764362L27.465974868878387,296.6339397009941L28.250453424519346,292.13597736866853L28.642692702339822,290.22364164100657L29.0349319801603,310.3233194238909L29.42717125798078,303.6497706380743L29.81941053580126,322.2756244633674L30.211649813621737,297.28748875177746L30.60388909144222,276.7801891621533L30.996128369262696,289.75294395878734L31.38836764708317,294.0152379421825L31.780606924903648,270.62068608804765L32.17284620272413,266.60682738578635L32.95732475836508,249.59828829962194L33.34956403618557,258.7188314253533L33.74180331400604,278.1417096146163L34.13404259182652,259.08367087803566L34.52628186964699,262.86353970586464L34.91852114746748,289.62689797688756L35.31076042528795,299.17202437637985L35.70299970310843,282.03838155893817L36.09523898092892,246.4330273497808L36.87971753656987,235.16088360924348L37.27195681439035,253.37326620184348L38.0564353700313,222.90274687111702L38.44867464785178,219.8807892629364L38.84091392567226,235.9159806770364L39.23315320349274,236.63199673888406L39.62539248131322,267.57045411741814L40.0176317591337,266.29738649484585L40.80211031477465,252.06699918251044L41.19434959259514,238.32578772877395L41.58658887041561,219.19104323865102L41.97882814823609,199.8917652090604L42.37106742605656,217.7737331113283L42.76330670387705,224.66380837097745L43.15554598169752,237.5451033131905L43.94002453733848,253.50402364082572L44.33226381515896,234.8743256281096L44.72450309297944,242.33859234517809L45.11674237079991,247.67901438567182L45.5089816486204,231.18308702833437L45.90122092644087,258.91742230923626L46.29346020426135,257.7431896292738L46.68569948208183,261.6682404380385L47.47017803772279,230.67324899882715L47.86241731554327,250.86020632720172L48.25465659336375,261.40246244058574L48.64689587118422,209.76655814820646L49.0391351490047,228.38550581041054L49.43137442682518,227.04809588525106L49.82361370464566,207.5841028313221L50.21585298246613,212.78261157653665L50.60809226028662,224.60001616877358L51.00033153810709,234.46456884615125L51.39257081592757,238.18451994653154L51.78481009374805,234.42232577308405L52.17704937156853,239.7544840800098L52.56928864938901,230.3883409449626L52.96152792720948,255.58559947068747L53.35376720502996,217.30640880535398L53.74600648285045,211.05379889985792L54.13824576067093,211.28662636706568L54.5304850384914,198.94331338982965L54.92272431631188,199.5046029395247L55.70720287195283,179.51341206885556L56.09944214977331,199.50678665269643L57.27615998323475,213.7066594657473L57.66839926105523,213.36709237726592L58.45287781669618,192.5038938412589L58.84511709451666,215.75483849537997L59.62959565015762,192.7637795073087L60.41407420579858,193.15657774892938L60.80631348361905,225.51221009470052L61.19855276143953,201.27974793798214L61.59079203926,211.9013365818463L61.983031317080496,224.0239180359737L62.37527059490097,219.64844789929228L63.15974915054192,222.49235334090432L63.5519884283624,197.94271495969898L63.94422770618288,205.65746401657668L64.33646698400337,209.06298369923957L65.12094553964432,189.5340840079548L65.51318481746479,210.92562589298055L65.90542409528527,213.9945067001512L66.29766337310575,213.8702701069649L66.68990265092623,208.56390713966985L67.08214192874671,224.63707437038246L67.47438120656719,221.53229589574053L68.25885976220815,207.96304937276705L68.65109904002863,231.1401339790414L69.43557759566957,229.24870801181203L69.82781687349006,221.63201613068514L70.61229542913101,202.29120533508538L71.00453470695149,202.9377528208144L71.39677398477197,189.26461313422377L72.18125254041293,173.63158337963637L72.5734918182334,165.51261676199928L72.96573109605389,183.40173642828387L73.75020965169485,198.12078766246876L74.14244892951531,225.1298138369583L74.53468820733579,229.25212578197426L74.92692748515628,214.98349163591737L75.71140604079723,213.46481329673747L76.10364531861771,208.68425720185104L76.49588459643819,216.7192569766821L76.88812387425867,215.1771307519993L77.28036315207915,184.09266868806742L77.67260242989963,208.69639121389946L78.0648417077201,227.86718341773414L78.45708098554059,230.2752274094802L78.84932026336107,225.31099624357986L79.63379881900201,209.2646843893999L80.02603809682249,193.23522541028325L81.20275593028393,211.95101427529704L82.77171304156583,225.3433100118525L83.16395231938633,198.09205021723022L83.94843087502728,217.47112714755627L84.34067015284776,204.99398511946245L84.73290943066823,194.8269084981005L85.5173879863092,177.72116930685414L85.90962726412968,197.50321555654315L86.30186654195015,198.10268239703768L86.69410581977063,216.039398556179L87.0863450975911,204.6785242859833L88.26306293105254,224.77784194459855L88.65530220887302,203.0115993872693L89.0475414866935,205.31889608471633L89.43978076451398,234.61305826943718L89.83202004233445,206.52547869502598L90.22425932015493,186.56959157337346L90.61649859797541,200.54265043696296L91.0087378757959,177.21587233329123L91.40097715361637,194.002570825205L91.79321643143685,193.5896533774104L92.18545570925733,179.51609874601465L92.5776949870778,188.7295438274459L93.36217354271875,167.7706241188584L93.75441282053924,180.0879733672091L94.14665209835972,184.7465924836474L94.93113065400067,178.51056926135078L95.32336993182115,143.95745584916324L95.71560920964163,172.31932236947708L96.10784848746212,145.3396993710945L96.50008776528259,156.2663189771199L96.89232704310307,163.0533497621864L97.28456632092355,170.6781950308518L98.0690448765645,174.3420201895948L98.46128415438497,184.24699082206791L99.24576271002594,185.52911488176704L99.63800198784642,182.3229989067501L100.03024126566689,199.13015099886687L100.81471982130785,180.99925693143953L101.20695909912833,158.13740447015454L101.5991983769488,173.3108650218072L101.99143765476929,194.9831828012399L102.38367693258976,205.01137858419162L102.77591621041024,182.00871697039835L103.16815548823072,166.6893867704568L103.56039476605119,167.03643984496588L103.95263404387167,190.3011921120701L104.34487332169215,206.06695089696734L104.73711259951264,170.2041737192051L105.12935187733311,143.23403204400137L105.52159115515359,128.48202232166952L106.30606971079455,125.94256617854168L106.69830898861504,128.94033909302084L107.0905482664355,123.11669673251905L107.48278754425598,112.60820419067966L108.26726609989694,152.60968704817324L108.65950537771742,168.47121813954183L109.05174465553789,151.2572603931823L109.83622321117885,157.69360324322784L110.62070176681982,146.03811905627177L111.40518032246078,140.02049493939123L111.79741960028124,133.98563369006402L112.18965887810172,144.2977484465529L112.58189815592219,143.82279754520633L112.97413743374268,138.36072482334018L113.75861598938364,153.87726995485426L114.15085526720412,167.21347865231007L114.54309454502459,144.06514847626832L114.93533382284508,159.70868479464374L115.32757310066555,174.04591730197635L115.71981237848603,162.43506697412812L116.11205165630652,167.57548883562225L116.50429093412698,167.09735741273678L118.46548732322938,136.73652422076435L119.24996587887033,148.7084299509947L119.64220515669082,138.48952977097315L120.42668371233178,137.64300437898368L120.81892299015225,134.7140908854286L121.21116226797272,137.12087273211972L121.60340154579322,136.76116120580392L121.99564082361368,119.89490636879243L122.38788010143416,101.46980540644205L122.78011937925463,108.38963799500819L123.17235865707512,130.58430362779845L123.56459793489559,139.7688339796453L123.95683721271608,111.57286053088373L124.34907649053656,109.72478842296513L125.52579432399799,140.81493087946268L125.91803360181846,138.3069534841176L126.31027287963893,118.88975577684226L126.70251215745942,119.7639035366581L127.09475143527992,131.2953409857732L127.87922999092086,126.12247406713936L128.27146926874133,119.8478650863451L128.66370854656182,135.66996108606065L129.0559478243823,131.0642516529667L129.44818710220278,124.17351670162792L129.84042638002327,114.40433005160934L130.23266565784374,122.1783732073546L130.6249049356642,117.51288811422735L131.01714421348467,119.2200027191399L131.40938349130516,120.3813650638772L131.80162276912566,116.25332939049255L132.19386204694612,100.99850203674497L132.58610132476662,98.4517587949696L132.97834060258708,114.17507752150428L133.37057988040758,119.71793995427153L133.76281915822804,101.62174748836627L134.547297713869,83.65160835994325L134.93953699168947,103.1406826510117L135.72401554733042,91.99168411874223L136.50849410297138,97.32597974327665L137.29297265861234,106.89582896783206L137.6852119364328,107.09232198773306L138.0774512142533,120.82108208406157L138.46969049207377,140.1468530338842L138.86192976989426,149.10492189228867L139.25416904771473,109.03628676907262L139.64640832553522,112.78105818331055L140.0386476033557,97.32198574222326L140.43088688117618,94.25931288165832L140.82312615899664,96.06382685786063L141.2153654368171,91.16574013396605L141.6076047146376,81.53377781259024L141.99984399245807,96.33071356802049L142.39208327027856,114.24470598871702L142.78432254809906,93.47279094644956L143.17656182591952,107.7907626078492L143.56880110374001,97.22375532049382L143.96104038156048,123.9483880327286L144.35327965938095,119.67552719656139L144.7455189372014,127.69572632398771L145.1377582150219,104.31260724348053L145.5299974928424,114.0153437556104L145.92223677066286,153.48124933702778L146.31447604848336,135.17020921657397L146.70671532630382,118.67649876578558L147.09895460412432,126.79608348613287L147.49119388194478,133.12092924699283L147.88343315976525,135.9761283967148L148.27567243758574,126.27382167719118L148.6679117154062,93.33852943202099L149.0601509932267,96.53112170869747L149.45239027104716,123.89794149894311L150.23686882668815,104.11330581098287L150.62910810450862,99.3603390648524L151.41358666014955,109.37319862239073L151.80582593797004,90.16642343295712L152.1980652157905,69.36705834269269L152.590304493611,109.49859730777398L152.9825437714315,112.23820115343253L153.37478304925196,110.01902968059048L153.76702232707245,120.0080171833822L154.55150088271338,155.41038198186058L154.94374016053385,155.14713881267357L155.72821871617484,146.20824926370074L156.1204579939953,143.08078624259335L156.5126972718158,150.45642703013962L156.90493654963626,111.90494133307085L157.29717582745675,105.93409074547293L158.08165438309769,87.83766672254133L158.47389366091818,100.6512322175725L158.86613293873864,115.49195824582763L159.25837221655914,95.86691220432486L160.0428507722001,97.73250728187965L160.43509005002056,116.76961270606925L160.82732932784106,123.23780018450441L161.21956860566155,111.57937351191914L161.61180788348202,122.43570245732477L162.39628643912295,106.54593947398897L162.78852571694344,126.33517506777835L163.1807649947639,131.328376089999L163.9652435504049,133.86999563618954L164.35748282822536,118.53973467775091L165.14196138386632,104.07212778729767L165.92643993950725,117.83226811601247L166.31867921732774,119.48931528621922L166.71091849514823,106.47088674985406L167.4953970507892,118.22836155582284L167.88763632860966,105.67743995009671L168.27987560643015,135.06500792974515L169.06435416207108,116.67088647223832L169.45659343989158,106.26974504145873L169.84883271771204,104.17814918624843L170.24107199553254,126.29713522158379L170.633311273353,148.71061477039117L171.0255505511735,112.7304013694903L171.417789828994,120.31468776618082L172.20226838463492,115.87681568292003L172.98674694027588,97.00890866903642L173.77122549591684,83.30026705142829L174.5557040515578,102.8514385574072L175.73242188501922,96.1953206275171L176.1246611628397,116.58479194384228L176.90913971848067,105.18263554210289L177.30137899630114,97.65549642086718L177.69361827412163,80.39538605104525L178.0858575519421,105.60354057047962L178.4780968297626,99.78379015939991L179.26257538540352,111.87704881323215L179.65481466322402,116.40644286019241L180.04705394104448,130.11528630971753L180.43929321886498,125.33476201892404L180.83153249668544,129.7015167475046L181.22377177450593,107.79400214444189L181.6160110523264,93.20453889077983L182.0082503301469,105.67044596738954L182.40048960796736,97.11262883248438L182.79272888578782,91.80407822858741L183.18496816360832,95.80312596159474L183.57720744142878,92.69088585778178L184.36168599706974,100.87309974365337L184.75392527489024,117.17693713560075L185.14616455271073,105.9458609715122L185.5384038305312,103.49091798993366L185.93064310835166,132.14085698054316L186.32288238617213,141.94216097569858L186.71512166399262,139.48665087067184L187.10736094181308,130.31556444974225L187.49960021963358,123.53529529681677L187.89183949745407,131.5109909554025L188.28407877527454,98.75271370590153L188.67631805309503,95.44590091128255L189.0685573309155,93.3258517664523L189.46079660873596,82.78369768000489L189.85303588655643,89.51189218569637L190.24527516437692,113.42910337430766L190.6375144421974,109.3696974284913L191.02975372001788,108.87606019085293L191.42199299783837,111.26880968960208L192.20647155347933,105.31224191791576L192.5987108312998,102.04903951893711L194.16766794258172,119.59986362031258L194.55990722040218,119.53080850048971L194.95214649822267,119.98454041040432L195.34438577604317,133.0840054982733L195.73662505386363,126.21418408015886L196.1288643316841,112.99236106061403L196.52110360950456,110.36618513775139L196.91334288732506,116.82827143244977L197.69782144296602,105.40883375927034L198.0900607207865,100.91752046385663L198.48229999860698,96.95438773679824L199.6590178320684,91.53058306276526L200.05125710988887,106.45130800379644L200.83573566552985,86.41322147060968L202.01245349899128,101.3437332550818L202.40469277681177,89.11528659515288L202.79693205463224,105.43594532286005L203.18917133245273,117.3624288523385L203.5814106102732,110.97538150948924L203.97364988809366,91.58526884301808L204.36588916591415,91.19476180611144L204.75812844373462,88.38425192412255L205.1503677215551,97.54904046453944L205.54260699937558,100.25606721830393L205.93484627719607,87.18291326561211L206.71932483283703,83.28772576689161L207.1115641106575,76.71914951293725L207.50380338847796,89.44730024396793L207.89604266629846,80.8226707830044L208.28828194411892,103.84830704044485L208.68052122193941,95.60208070122806L209.0727604997599,101.76453168114303L209.85723905540084,109.94377097869011L210.24947833322133,100.73752222543887L210.6417176110418,85.26103770440608L211.0339568888623,93.8199009888912L213.38739255578514,96.71584408975775L214.1718711114261,117.67249610647254L214.5641103892466,104.05099288966342L214.9563496670671,106.82665503039792L215.34858894488752,103.04798693400699L215.74082822270802,106.4389287724925L216.1330675005285,108.13908904355785L216.525306778349,140.6579855399957L216.91754605616947,123.61364061918347L217.30978533398994,106.73645850983068L217.7020246118104,95.32945906372493L218.0942638896309,87.87774560400928L218.4865031674514,83.76845482027943L218.87874244527183,73.21220261734102L219.27098172309232,77.57563220796847L219.6632210009128,88.5821136062626L220.0554602787333,110.60032390289199L220.44769955655377,110.74752018955394L221.2321781121947,93.22661753064376L221.6244173900152,89.5832568625746L222.0166566678357,92.70830943427686L222.80113522347662,96.95188463279656L223.19337450129711,109.40591175317672L223.5856137791176,114.77852660554277L223.97785305693807,102.51359365484923L224.37009233475857,110.49779390757442L224.762331612579,91.8905422122221L225.1545708903995,74.26257653427074L225.54681016822,87.44492889534321L225.93904944604049,94.12082153694517L226.33128872386092,99.89504223058012L226.72352800168142,104.28769226535809L227.1157672795019,97.85408091881492L227.50800655732237,99.70461923042748L227.90024583514287,97.86864318791334L228.2924851129633,92.39472651345685L228.6847243907838,88.92492549763192L229.0769636686043,92.14435611852448L229.4692029464248,104.6011680265371L229.86144222424528,104.91641485949972L230.25368150206572,107.63815528539537L231.03816005770668,102.23451969166543L231.43039933552717,90.37603637054043L231.8226386133476,82.5276601413323L232.2148778911681,80.55522284219137L232.6071171689886,81.88187224474046L232.9993564468091,103.30847822414006L233.39159572462958,101.03778506212144L233.78383500245002,99.61563668806298L234.1760742802705,98.66148172122584L234.56831355809098,110.71620792392461L234.96055283591147,94.38884043326665L235.35279211373197,100.02205188698005L235.7450313915524,104.41101555447304L236.1372706693729,113.19975001984795L236.92174922501388,94.63450314971408L237.31398850283432,84.76763522041281L237.7062277806548,95.01027091694068L238.49070633629577,99.98503109643441L238.88294561411627,79.53577989740029L239.2751848919367,85.63342670678917L239.6674241697572,90.38391153075081L240.0596634475777,93.25032156824825L240.45190272539818,108.25940375521434L240.84414200321865,100.4270872788031L241.23638128103912,98.96025946581376L241.62862055885958,95.48988656180563L242.02085983668007,101.37407759259476L242.41309911450057,94.46839046873023L242.80533839232106,100.41734082363314L243.589816947962,83.20617049463215L244.37429550360298,94.33410170063686L244.76653478142342,109.25475088185028L245.15877405924388,86.71869081089034L246.33549189270536,86.5936260965034L247.90444900398728,87.4238469711403L248.29668828180775,96.76815445835211L248.6889275596282,97.14658383137667L249.08116683744868,97.33676689367206L249.47340611526917,99.97268702163511L249.86564539308966,82.91608901668378L250.2578846709101,95.37712898472293L250.6501239487306,112.36102843662242L251.82684178219205,107.34233660663915L252.2190810600125,92.72878871334497L252.61132033783298,80.51240328369273L253.00355961565347,108.00288622569688L253.78803817129446,100.91131153405591L254.1802774491149,92.4133661863301L254.5725167269354,83.24227806742506L255.35699528257635,94.2672996427722L255.74923456039681,115.27185547849163L256.1414738382173,101.73483767678609L256.5337131160378,100.07182102193445L256.92595239385827,104.42907070653806L257.31819167167873,96.29001128960995L257.7104309494992,94.73261796037299L258.10267022731966,101.13675880699505L258.49490950514013,93.54532591467402L258.8871487829606,86.26293465074431L259.2793880607811,106.50818617969637L259.6716273386016,90.53923868090943L260.0638666164221,87.98985984544822L260.4561058942425,67.14836697222341L260.84834517206303,68.60631508261977L261.2405844498835,78.4559964155399L262.4173022833449,74.98063629661601L262.8095415611654,78.65281155865395L263.2017808389859,80.86350241021604L263.5940201168064,87.15784761289052L263.9862593946268,85.524137124879L264.37849867244734,84.9538438229999L264.7707379502678,79.27623146902594L265.16297722808827,91.91586670664893L265.5552165059088,78.08674092332612L265.9474557837292,80.84257699934615L266.3396950615497,76.76424073577688L266.7319343393702,85.09550079722686L267.1241736171907,90.08800325348824L267.5164128950111,98.45301233237248L268.3008914506521,87.34020576757156L268.69313072847257,101.89965428237072L269.0853700062931,89.41428278764619L269.4776092841135,73.1941934749701L269.869848561934,77.59070360782297L270.2620878397545,85.16872272759899L270.654327117575,84.79569138620036L271.0465663953955,84.54588787572904L271.43880567321594,84.24257740382528L271.8310449510364,89.33996090876299L272.22328422885687,97.95216360409536L272.6155235066774,87.15689725683838L273.0077627844978,85.86853813809495L273.4000020623183,79.82887568069677L273.7922413401388,77.79974126144492L274.1844806179593,85.71604637014055L274.5767198957798,90.36059676856536L274.96895917360024,92.89669859167806L275.3611984514207,89.1974285300495L275.75343772924117,97.78631801215369L276.53791628488216,86.95151031274884L277.3223948405231,67.12985207470706L278.1068733961641,60.01114246546379L279.2835912296255,71.58729861471458L279.675830507446,76.62591976953775L280.06806978526646,79.64704387568044L280.4603090630869,91.60437384091783L280.8525483409074,94.1132233148189L281.2447876187279,71.69928800366574L281.6370268965484,63.928099806007744L282.02926617436884,66.26896588759674L282.4215054521893,68.07112700697152L282.8137447300098,60.42733097519126L283.2059840078303,59.19135525698999L283.59822328565076,63.80887276690827L283.9904625634713,77.2835725083458L285.1671803969327,77.113019027756L285.55941967475314,76.00968276060865L285.9516589525736,73.90450554435807L286.7361375082146,77.99953177224884L287.12837678603506,60.994272541364L287.5206160638556,58.986542210727336L287.912855341676,68.93133740512691L288.3050946194965,66.25695214462293L288.697333897317,83.7180326890721L289.08957317513745,91.77163417062894L289.48181245295797,76.83078182791058L289.8740517307784,80.02323112535146L290.65853028641936,70.98280484883432L291.0507695642399,70.89096648582145L291.4430088420603,70.83403052197318L291.8352481198808,78.12820285407258L292.2274873977013,73.01737754799055L293.01196595334227,72.38578944853938L293.4042052311627,68.33420573577145L293.7964445089832,63.955642519782806L294.18868378680367,61.30877346516625L294.5809230646242,71.44401317654751L294.97316234244465,65.79662048216954L295.3654016202651,62.506031837995906L295.7576408980856,65.80404011647578L296.14988017590605,67.7827372632083L296.54211945372657,68.93561476807835L296.93435873154704,64.38339046964343L297.3265980093675,61.578522408253946L297.71883728718797,72.03115993396118L298.1110765650085,72.22631068460042L298.8955551206494,71.68612824895172L299.2877943984699,65.94512413627173L299.68003367629035,62.582141677641296L300.0722729541109,60.4794975828259L300.46451223193134,70.33208726252855L300.8567515097518,67.07928823937017L301.24899078757227,63.17967237608131L301.6412300653928,60.83974112757514L302.8179478988542,64.80814722301498L303.21018717667465,61.830842681926775L303.99466573231564,81.35418280312886L304.3869050101361,71.74676552144305L304.77914428795657,71.34653956014823L305.1713835657771,65.77102152070258L305.56362284359756,73.1297921121665L305.955862121418,80.20978063860775L306.74034067705895,71.20983278609262L307.1325799548795,76.38876605718794L307.52481923269994,68.76600598890393L307.91705851052046,69.56153409199497L308.30929778834087,64.8194831935055L308.7015370661614,61.82923427650634L309.09377634398186,70.7193273960589L309.4860156218023,70.73848667263272L310.27049417744325,65.37729393296776L310.6627334552638,67.5229158406672L311.05497273308424,63.54374981949044L311.44721201090476,71.56474211780478L311.8394512887252,74.77076029234374L312.2316905665457,75.13324027238488L312.62392984436616,68.02153178715831L313.0161691221867,65.60691431060232L313.40840840000715,69.99041639483075L313.80064767782756,70.29197534169371L314.1928869556481,74.70367363222375L314.58512623346854,67.77090794651271L314.97736551128907,65.49664917839414L315.3696047891095,64.21015585477483L315.76184406693,58.06557155499408L316.15408334475046,63.13566677317243L316.546322622571,76.63257856788779L316.93856190039145,68.91903226753118L317.3308011782119,75.00749306366558L317.7230404560324,67.9379430251L318.11527973385284,63.70365260647785L318.50751901167337,53.856847617736484L318.89975828949383,57.99255418364148L319.68423684513476,61.768792770225886L320.0764761229553,60.02712286581023L320.46871540077575,59.110265415458656L320.8609546785962,74.09943619471674L321.2531939564167,64.12620604770413L321.64543323423715,61.413753180624234L322.03767251205767,62.15611896013831L322.42991178987813,76.20512483825102L323.21439034551906,79.28415887306043L323.6066296233396,78.74497572893196L323.99886890116005,72.16616010819347L324.3911081789805,82.24500511865436L324.783347456801,69.24045533983796L325.17558673462145,74.18791377059242L325.96006529026243,78.16779767212692L326.35230456808296,75.12691921249406L326.74454384590337,84.18297547350485L327.1367831237239,85.99659471041052L327.9212616793648,71.15845983766272L328.3135009571853,70.49747469505138L328.70574023500575,81.05451523700447L329.09797951282627,71.43245908850616L329.88245806846726,69.70362083764856L330.27469734628767,75.41474001645247L330.6669366241082,73.5441974668494L331.05917590192865,77.47029052407157L331.4514151797491,58.267374132470756L331.84365445756964,81.75613360409031L332.23589373539005,72.70057464050923L332.6281330132106,64.60515468950308L333.02037229103104,49.69656573487698L333.41261156885156,49.06775809848738L333.80485084667197,60.03495393220959L334.1970901244925,58.937060469019954L334.58932940231296,59.4341046899618L335.37380795795394,74.55417982769497L335.76604723577435,64.39398467079086L336.55052579141534,67.00155793952251L336.94276506923586,63.54329064816638L337.3350043470563,57.67402414927697L337.7272436248768,62.67259045788453L338.5117221805177,65.96149744797214L338.90396145833824,54.74701052173569L339.2962007361587,71.61755254689722L339.6884400139792,57.7315192428282L340.47291856962016,64.90274122975721L341.2573971252611,59.79383560600779L342.041875680902,80.27300758233638L342.43411495872255,87.15612327805997L342.826354236543,98.64694226338699L343.2185935143635,92.91874292670542L343.61083279218394,78.69267164921767L345.17978990346586,66.75163078028952L345.5720291812863,84.36148231282692L345.96426845910685,89.61066369115122L346.3565077369273,78.68821448423043L346.7487470147478,70.14583677566227L347.53322557038877,66.941121960197L347.92546484820923,73.81837483144812L348.3177041260297,69.14707075166308L348.70994340385016,69.78483584206217L349.1021826816706,64.79491441104747L349.49442195949115,67.17639927710884L349.8866612373116,70.56282265776277L350.27890051513214,65.26973911693933L350.67113979295254,72.76616340275682L351.06337907077307,66.66268935773647L351.847857626414,62.933756310425736L352.24009690423446,66.06779094338482L352.6323361820549,62.5897557044531L353.02457545987545,65.85368142439584L353.4168147376959,67.73284280537884L353.80905401551644,55.5980046481531L354.20129329333685,61.61253758871644L354.59353257115737,65.16033885229847L354.98577184897783,77.6638176604306L355.3780111267983,69.53960866909757L355.7702504046188,64.77624606063276L356.16248968243923,67.15538661452594L356.55472896025975,63.2284042813013L356.9469682380802,61.50490472638603L357.33920751590074,70.78382197982144L357.7314467937212,61.924161867897624L358.12368607154167,70.40058392278003L358.9081646271826,70.54842661257386L359.3004039050031,75.87644675252827L359.69264318282353,68.47559611207107L360.08488246064405,66.03601588183045L360.4771217384645,67.7071984848007L360.86936101628504,72.43456222112195L361.2616002941055,63.00194050048721L361.65383957192597,60.74129634922303L362.04607884974644,59.274555724793906L362.4383181275669,63.855234975865066L362.8305574053874,59.86136615744264L363.2227966832079,58.86444525809105L364.0072752388488,54.295322942212046L364.39951451666934,55.65339510267212L364.7917537944898,69.72836306747935L365.1839930723103,64.7767725181746L365.9684716279512,61.80252966775435L366.3607109057717,65.43568726145806L366.7529501835922,62.1902232684967L367.14518946141266,60.65622029466257L367.5374287392331,59.33095307613449L367.92966801705364,58.52824532014539L368.7141465726946,58.051149121475206L369.10638585051504,57.768287743465635L369.890864406156,57.638087076884865L370.2831036839765,57.51576033125521L370.67534296179696,57.44851004413051L371.0675822396174,62.77297729152681L371.45982151743794,60.60656002255202L371.8520607952584,66.89009262208602L372.63653935089934,68.43145761698074L373.4210179065403,69.34889091957824L374.2054964621813,69.91061812826786L374.5977357400017,80.75189084002648L374.98997501782225,71.42684727020237L375.3822142956427,76.22311569265476L375.7744535734632,74.03385914784977L376.5589321291041,67.36950444748727L376.95117140692463,63.33304668255243L377.3434106847451,60.813918063092856L378.127889240386,59.42508654559372L378.52012851820655,58.58321591684638L378.912367796027,63.469488676855256L379.3046070738475,61.002417591086136L380.0890856294884,59.538887094699284L380.48132490730893,58.95414798369363L380.8735641851294,63.65878533734746L381.2658034629499,61.130551335349544L381.6580427407704,60.14430272303723L382.05028201859085,59.02994829341265L382.4425212964113,58.39077059264033L382.8347605742318,57.970928512434014L383.2269998520523,57.75115373019546L383.6192391298727,62.942918904791114L384.01147840769323,60.703080062566734L384.4037176855137,64.62404470752136L385.1881962411547,67.06546746727811L385.9726747967956,68.53269317094941L386.3649140746161,64.06707973566185L387.14939263025707,62.84630544126223L387.54163190807753,55.94274282786641L387.933871185898,59.851012089817566L388.3261104637185,63.3333166650839L388.718349741539,60.92605149161164L389.11058901935945,59.516356631763756L389.5028282971799,64.05832287120934L389.8950675750004,61.370273855666774L390.2873068528209,70.50589393768657L390.67954613064137,75.84046857312993L391.07178540846184,68.43654230687005L391.4640246862823,69.36169947566809L392.2485032419233,69.90051290329355L392.64074251974375,70.23027018118803L393.0329817975642,57.72446073320152L393.4252210753847,57.56823144717684L393.8174603532052,67.4893336693085L394.20969963102567,63.57432999385337L394.9941781866666,61.087317733770234L395.7786567423076,65.05173682994666L396.17089602012805,61.97289927258381L396.955374575769,60.13799607902794L397.3476138535895,59.03295698939207L397.73985313141,58.350741512363655L398.1320924092305,68.26607381090584L398.5243316870509,69.26011921039922L398.9165709648714,69.85142498321744L399.3088102426919,64.81831747119901L400.0932887983329,58.41488848350481L400.4855280761533,62.96939517163248L400.8777673539738,60.71346698455039L401.6622459096148,62.50680887285647L402.0544851874352,60.42998508574226L402.4467244652557,59.226156392759144L402.8389637430762,58.455393927252814L403.6234422987172,63.371069681502135L404.01568157653765,60.96821878577538L404.4079208543581,59.51470191943201L404.8001601321786,58.64636551206201L405.58463868781956,58.11323387766658L405.97687796564,57.76224872451963L406.3691172434605,57.606646013844646L406.761356521281,57.54951202682717L407.1535957991015,57.485365396192826L407.54583507692195,57.420515340936724L407.9380743547424,62.56490715927229L408.7225529103834,65.82319225594372L409.11479218820386,67.77945715821019L409.50703146602433,64.0110544727546L409.8992707438448,66.71988431961411L410.2915100216653,67.73632068123605L410.6837492994858,63.56100730874031L411.07598857730625,61.04374340544677L411.4682278551267,59.555703877022154L411.8604671329472,58.685845895650516L412.2527064107677,58.146464209265524L412.64494568858817,57.823589939921725L413.03718496640863,57.624474360549485L413.4294242442291,62.86755820513539L413.8216635220496,60.69910492868362L414.2139027998701,59.33738401294478L414.60614207769055,63.69254781839295L414.998381355511,60.143712795107966L415.782859911152,56.214458769420276L416.1750991889724,56.666543083120935L416.56733846679293,57.018766758187L416.9595777446134,57.13958577493519L417.3518170224339,57.234665549423745L417.7440563002544,57.27769676792535L418.5285348558954,57.32734379755199L418.92077413371584,60.63530209848566L419.31301341153636,64.68295002721108L419.7052526893567,61.73766445492851L420.09749196717723,59.96273004597587L421.66644907845915,59.1089355664991L422.0586883562797,63.798236280529245L422.45092763410014,65.80488916973019L422.84316691192066,62.512556445684744L423.235406189741,60.440765413600985L423.62764546756154,59.207071165263564L424.019884745382,58.60421774893901L424.4121240232025,58.10417218326826L424.804363301023,57.82630192688441L425.19660257884345,57.64647959988263L425.588841856664,57.540850431143184L425.98108113448444,57.42221499779803L426.37332041230496,57.36790762339851L426.76555969012543,57.352466635254764L427.15779896794584,57.36304098774747L427.5500382457663,57.62184696122536L427.9422775235868,57.487039879322886L428.3345168014073,62.78843994741463L428.72675607922775,65.18876843610606L429.1189953570483,62.06018579297937L429.51123463486874,60.15273868725825L429.90347391268926,59.0833133911286L430.29571319050973,58.34090009140421L430.68795246833014,57.94903882816338L431.0801917461506,57.68809909511996L431.8646703017916,62.91608379998865L432.6491488574326,60.6916152749643L433.04138813525304,61.23268488145661L433.43362741307357,65.01911479361989L433.82586669089403,61.91402553127353L434.21810596871444,60.38931224886061L435.0025845243554,58.94142044270955L435.78706307999636,58.33883990612671L436.1793023578169,62.68214060893291L436.57154163563735,65.49314143625782L436.96378091345787,67.37139261423478L437.7482594690988,63.3928338558951L438.1404987469192,60.998420726907334L438.53273802473973,59.494169486728865L438.9249773025602,58.635339896703925L439.31721658038066,58.10079620926454L440.10169513602165,57.827025761542984L440.49393441384217,57.662116570777826L440.88617369166263,60.60866481269531L441.2784129694831,59.30587003832443L442.06289152512403,62.906120234273224L442.4551308029445,61.04629622408126L442.84737008076496,59.638855577180024L444.02408791422647,58.75697752574333L444.41632719204694,58.1418100513355L444.8085664698674,63.125343286210686L445.2008057476879,60.810000913068535L445.59304502550833,64.77488478349986L445.9852843033288,61.82193680463791L446.37752358114926,61.49819538927228L446.7697628589698,59.79894011031495L447.16200213679025,58.78715000852353L447.5542414146108,58.21511756292772L447.94648069243124,62.98031871028955L448.3387199702517,66.02844848158315L448.7309592480722,65.11060279257539L449.5154378037131,67.26165784278633L449.90767708153356,63.377452919316056L450.2999163593541,65.94262101890651L451.0843949149951,72.67478147230665L451.47663419281554,66.59993540335017L451.868873470636,62.82073750942493L452.2611127484565,66.77100302367958L452.65335202627693,62.891031975026365L453.0455913040974,60.63507334318868L453.43783058191786,59.34608255692279L453.8300698597384,58.77113144913011L454.22230913755885,56.77214262366404L454.6145484153794,62.035393605926416L455.00678769319984,68.00616162487933L455.7912662488408,69.37798169111932L456.1835055266613,64.50071936543547L456.5757448044817,66.53765638648348L456.96798408230217,62.69452612652096L457.3602233601227,60.55027068316873L457.75246263794315,59.35159100674328L458.1447019157637,59.07983767546725L458.53694119358414,58.431270616694285L458.9291804714046,63.176966983203684L459.32141974922513,60.85617780136457L459.7136590270456,64.71946142252567L460.105898304866,66.98384487862823L460.49813758268647,75.5021239167996L460.890376860507,73.46751293156196L461.674855416148,77.42330941970101L462.06709469396844,63.85635643114634L462.4593339717889,61.18149062884313L462.85157324960943,59.63339247471503L463.2438125274299,61.70388022653752L463.6360518052504,61.85459960036875L464.02829108307077,72.58646901335767L465.59724819435274,66.26359603419931L465.9894874721732,67.22572029952622L466.38172674999373,63.66549654366216L466.7739660278142,65.70508292116511L467.55844458345507,61.953841822656244L467.9506838612756,76.1314690629908L468.34292313909606,65.225259982664L468.7351624169166,68.31167130043144L469.12740169473705,70.68455995817719L469.91188025037803,63.75863092664491L470.3041195281985,69.0210198144188L470.696358806019,66.59821065748218L471.0885980838394,67.01035641213758L471.4808373616599,75.38983243442947L471.87307663948036,78.40790835516776L472.2653159173009,69.76562436948733L472.65755519512135,64.64888163424068L473.0497944729418,61.4972698942926L473.44203375076233,53.61531871713048L473.8342730285828,61.08548211354601L474.2265123064033,69.92805096125787L474.6187515842238,80.07752955300383L475.0109908620442,75.34873789592545L475.40323013986466,68.3122374331971" style="fill: none;" fill="none"></path></g></g></g></g><g opacity="0.2"><g><g><g><path stroke="rgb(255, 112, 67)" stroke-width="2px" d="M5.500575310931597,-9.905581568467692L6.285053866572554,4.639923466014333L7.069532422213511,83.5717014344413L7.46177170003399,117.31866399702314L7.854010977854467,164.75854213439186L8.246250255674946,217.55897878739648L8.638489533495425,238.12395948396542L9.030728811315903,247.39421885895868L9.422968089136381,303.6066306560735L9.815207366956859,293.1612641835333L10.207446644777338,293.1537167586609L10.599685922597816,329.2975258200125L10.991925200418295,342.30605168940394L11.384164478238773,361.12137757001307L11.776403756059251,303.3818252152307L12.16864303387973,347.45743871571847L12.560882311700208,383.40717113749355L12.953121589520688,332.3651497043185L13.345360867341165,389.8319165601406L13.737600145161643,366.41266150735566L14.129839422982123,406.1584790890694L14.522078700802602,326.76105196110296L14.914317978623078,355.796534547077L15.698796534264034,316.17969706541516L16.87551436772547,345.7978138964511L17.26775364554595,253.49765962275126L17.659992923366428,350.58382469367405L18.052232201186907,315.7791444454003L18.444471479007387,323.72739148872284L19.228950034648342,297.71586554315013L19.621189312468818,310.3513329831334L20.013428590289298,321.91830070189275L20.405667868109777,329.2751530962836L20.797907145930253,242.08730097009465L21.582385701571212,242.12962045955783L21.97462497939169,295.1244033030273L22.36686425721217,305.8294820564451L22.759103535032647,323.40878233875145L23.151342812853127,334.95890312699197L23.543582090673603,324.53132701307965L24.32806064631456,307.6337209272858L24.720299924135038,302.42815417242286L25.504778479775997,336.2954712066309L25.897017757596476,247.86229397649282L26.289257035416952,304.7543783384578L26.681496313237435,256.14437979497575L27.07373559105791,271.51767560742917L27.465974868878387,326.2227588371665L28.250453424519346,285.3890338702712L28.642692702339822,287.3551380495364L29.0349319801603,340.4728360980709L29.42717125798078,293.63944745937874L29.81941053580126,350.214405201258L30.211649813621737,259.8052851844316L30.60388909144222,246.01923977773686L30.996128369262696,309.21207615373055L31.38836764708317,300.4086789172741L31.780606924903648,235.5288583068505L32.17284620272413,260.5860393323946L32.95732475836508,224.08547967037705L33.34956403618557,272.399646113949L33.74180331400604,307.2760268985108L34.13404259182652,230.49661277316486L34.52628186964699,268.53334294760805L34.91852114746748,329.77193538342175L35.31076042528795,313.4897139756184L35.70299970310843,256.33791733277565L36.09523898092892,193.024996036044L36.87971753656987,218.25266799843834L37.27195681439035,280.69184009074326L38.0564353700313,177.19696787502735L38.44867464785178,215.3478528506659L38.84091392567226,259.968767798186L39.23315320349274,237.70602083165517L39.62539248131322,313.9781401852192L40.0176317591337,264.38778506098754L40.80211031477465,230.72141821400763L41.19434959259514,217.71397054816939L41.58658887041561,190.48892650346696L41.97882814823609,170.94284816467467L42.37106742605656,244.59668496472995L42.76330670387705,234.99892126045128L43.15554598169752,256.86704572650996L43.94002453733848,277.4424041322784L44.33226381515896,206.92977860903525L44.72450309297944,253.53499242078095L45.11674237079991,255.68964744641252L45.5089816486204,206.43919599232802L45.90122092644087,300.51892523058905L46.29346020426135,255.98184060933045L46.68569948208183,267.55581665118564L47.47017803772279,184.18076184001L47.86241731554327,281.1406423197639L48.25465659336375,277.2158466106617L48.64689587118422,132.31270170963748L49.0391351490047,256.31392730371687L49.43137442682518,225.041980997512L49.82361370464566,178.38811325042812L50.21585298246613,220.58037469435894L50.60809226028662,242.32612305712902L51.00033153810709,249.26139786221756L51.39257081592757,243.76444659710157L51.78481009374805,228.7790345129128L52.17704937156853,247.75272154039857L52.56928864938901,216.3391262423917L52.96152792720948,293.381487259275L53.35376720502996,159.88762280735423L53.74600648285045,201.67488404161324L54.13824576067093,211.63586756787706L54.5304850384914,180.42834392397606L54.92272431631188,200.34653726406745L55.70720287195283,149.52662576285218L56.09944214977331,229.49684852845758L57.27615998323475,235.00646868532374L57.66839926105523,212.8577417445441L58.45287781669618,161.20909603724837L58.84511709451666,250.6312554765617L59.62959565015762,158.2771910252017L60.41407420579858,193.74577511136008L60.80631348361905,274.0456586133572L61.19855276143953,164.93105470290433L61.59079203926,227.8337195476423L61.983031317080496,242.20779021716504L62.37527059490097,213.08524269426988L63.15974915054192,226.75821150332254L63.5519884283624,161.11825738789105L63.94422770618288,217.22958760189303L64.33646698400337,214.17126322323338L65.12094553964432,160.2407344710281L65.51318481746479,243.01293872051923L65.90542409528527,218.59782791090737L66.29766337310575,213.6839152171857L66.68990265092623,200.60436268872706L67.08214192874671,248.74682521645155L67.47438120656719,216.87512818377763L68.25885976220815,187.6091795883065L68.65109904002863,265.9057608884529L69.43557759566957,226.41156906096785L69.82781687349006,210.20697830899513L70.61229542913101,173.27998914168583L71.00453470695149,203.9075740494079L71.39677398477197,168.75490360433795L72.18125254041293,150.1820387477553L72.5734918182334,153.3341668355436L72.96573109605389,210.23541592771082L73.75020965169485,220.19936451374596L74.14244892951531,265.6433530986922L74.53468820733579,235.43559369949844L74.92692748515628,193.58054041683175L75.71140604079723,211.18679578796812L76.10364531861771,201.51342305952116L76.49588459643819,228.7717566389287L76.88812387425867,212.86394141497505L77.28036315207915,137.46597559217014L77.67260242989963,245.60197500264738L78.0648417077201,256.6233717234861L78.45708098554059,233.88729339709926L78.84932026336107,217.8646494947295L79.63379881900201,185.19521660812964L80.02603809682249,169.19103694160847L81.20275593028393,240.02469757281776L82.77171304156583,245.43175361668548L83.16395231938633,157.215160525297L83.94843087502728,246.5397425430455L84.34067015284776,186.27827207732184L84.73290943066823,179.57629356605756L85.5173879863092,152.0625605199851L85.90962726412968,227.17628493107694L86.30186654195015,199.00188265777945L86.69410581977063,242.94447279489083L87.0863450975911,187.6372128806898L88.26306293105254,254.92681843252154L88.65530220887302,170.36223555127498L89.0475414866935,208.7798411308871L89.43978076451398,278.5543015465188L89.83202004233445,164.39410933340935L90.22425932015493,156.63576089089466L90.61649859797541,221.50223873234734L91.0087378757959,142.22570517778377L91.40097715361637,219.18261856307572L91.79321643143685,192.97027720571901L92.18545570925733,158.40576679892118L92.5776949870778,202.54971144959316L93.36217354271875,136.3322445559774L93.75441282053924,198.56399723973496L94.14665209835972,191.73452115830446L94.93113065400067,169.156534427906L95.32336993182115,92.12778573088187L95.71560920964163,214.86212214994805L96.10784848746212,104.87026487352054L96.50008776528259,172.656248386158L96.89232704310307,173.2338959397864L97.28456632092355,182.1154629338501L98.0690448765645,179.83775792770925L98.46128415438497,199.10444677077786L99.24576271002594,187.4523009713155L99.63800198784642,177.51382494422484L100.03024126566689,224.34087913704192L100.81471982130785,153.80291583029853L101.20695909912833,123.84462577822704L101.5991983769488,196.071055849286L101.99143765476929,227.4916594703887L102.38367693258976,220.0536722586194L102.77591621041024,147.50472454970867L103.16815548823072,143.71039147054398L103.56039476605119,167.55701945672968L103.95263404387167,225.19832051272644L104.34487332169215,229.71558907431358L104.73711259951264,116.41000795256151L105.12935187733311,102.77881953119547L105.52159115515359,106.35400773817169L106.30606971079455,122.13338196385013L106.69830898861504,133.43699846473967L107.0905482664355,114.38123319176633L107.48278754425598,96.84546537792062L108.26726609989694,212.61191133441386L108.65950537771742,192.26351477659458L109.05174465553789,125.43632377364266L109.83622321117885,167.34811751829662L110.62070176681982,128.55489277583752L111.40518032246078,130.9940587640705L111.79741960028124,124.93334181607358L112.18965887810172,159.76592058128645L112.58189815592219,143.11037119318664L112.97413743374268,130.16761574054058L113.75861598938364,177.1520876521253L114.15085526720412,187.21779169849393L114.54309454502459,109.34265321220562L114.93533382284508,183.17398927220688L115.32757310066555,195.55176606297476L115.71981237848603,145.01879148235554L116.11205165630652,175.28612162786374L116.50429093412698,166.38016027840885L118.46548732322938,91.19527443280563L119.24996587887033,166.66628854634004L119.64220515669082,123.16117950094065L120.42668371233178,136.3732162909991L120.81892299015225,130.32072064509535L121.21116226797272,140.7310455021564L121.60340154579322,136.22159391632997L121.99564082361368,94.59552411327473L122.38788010143416,73.83215396291652L122.78011937925463,118.76938687785749L123.17235865707512,163.87630207698373L123.56459793489559,153.54562950741553L123.95683721271608,69.27890035774121L124.34907649053656,106.95268026108755L125.52579432399799,187.4501445642091L125.91803360181846,134.54498739109965L126.31027287963893,89.76395921592895L126.70251215745942,121.07512517638159L127.09475143527992,148.59249715944614L127.87922999092086,118.36317368918833L128.27146926874133,110.43595161515327L128.66370854656182,159.4031050856337L129.0559478243823,124.15568750332608L129.44818710220278,113.83741427461968L129.84042638002327,99.75055007658132L130.23266565784374,133.83943794097263L130.6249049356642,110.51466047453705L131.01714421348467,121.78067462650867L131.40938349130516,122.123408580983L131.80162276912566,110.06127588041528L132.19386204694612,78.11626100612357L132.58610132476662,94.63164393230703L132.97834060258708,137.76005561130617L133.37057988040758,128.0322336034225L133.76281915822804,74.47745878950838L134.547297713869,56.696399667309L134.93953699168947,132.37429408761417L135.72401554733042,75.26818632033844L136.50849410297138,105.32742318007853L137.29297265861234,121.25060280466533L137.6852119364328,107.38706151758412L138.0774512142533,141.4142222285545L138.46969049207377,169.13550945861854L138.86192976989426,162.5420251798953L139.25416904771473,48.933334084249076L139.64640832553522,118.39821530466743L140.0386476033557,74.13337708059254L140.43088688117618,89.6653035908109L140.82312615899664,98.77059782216419L141.2153654368171,83.81861004812473L141.6076047146376,67.0858343305268L141.99984399245807,118.52611720116612L142.39208327027856,141.1156946197615L142.78432254809906,62.31491838304864L143.17656182591952,129.26772009994872L143.56880110374001,81.37324438946087L143.96104038156048,164.03533710108113L144.35327965938095,113.26623594231053L144.7455189372014,139.72602501512728L145.1377582150219,69.23792862271951L145.5299974928424,128.56944852380576L145.92223677066286,212.68010770915396L146.31447604848336,107.70364903589328L146.70671532630382,93.93593308960295L147.09895460412432,138.975460566654L147.49119388194478,142.60819788828246L147.88343315976525,140.25892712129775L148.27567243758574,111.72036159790606L148.6679117154062,43.9355910642659L149.0601509932267,101.32001012371211L149.45239027104716,164.9481711843114L150.23686882668815,74.43635227904252L150.62910810450862,92.23088894565691L151.41358666014955,124.39248795869824L151.80582593797004,61.35626064880726L152.1980652157905,38.16801070729599L152.590304493611,169.6959057553957L152.9825437714315,116.34760692191988L153.37478304925196,106.69027247132681L153.76702232707245,134.99149843756976L154.55150088271338,208.51392917957844L154.94374016053385,154.75227405889356L155.72821871617484,132.799914940241L156.1204579939953,138.38959171093245L156.5126972718158,161.51988821145903L156.90493654963626,54.077712787467775L157.29717582745675,96.97781486407625L158.08165438309769,60.69303068814338L158.47389366091818,119.87158046011899L158.86613293873864,137.75304728821035L159.25837221655914,66.42934314207045L160.0428507722001,100.53089989821184L160.43509005002056,145.3252708423534L160.82732932784106,132.94008140215735L161.21956860566155,94.09173350304076L161.61180788348202,138.72019587543326L162.39628643912295,82.71129499898548L162.78852571694344,156.01902845846266L163.1807649947639,138.81817762333054L163.9652435504049,137.68242495547557L164.35748282822536,95.5443432400932L165.14196138386632,82.37071745161757L165.92643993950725,138.4724786090849L166.31867921732774,121.9748860415293L166.71091849514823,86.94324394530638L167.4953970507892,135.8645737647757L167.88763632860966,86.85105754150753L168.27987560643015,179.14635989921797L169.06435416207108,89.07970428597766L169.45659343989158,90.6680328952895L169.84883271771204,101.04075540343261L170.24107199553254,159.4756142745866L170.633311273353,182.33083409360236L171.0255505511735,58.76008126813913L171.417789828994,131.69111736121607L172.20226838463492,109.22000755802884L172.98674694027588,68.70704814821127L173.77122549591684,62.73730462501585L174.5557040515578,132.17819581637542L175.73242188501922,86.21114373268169L176.1246611628397,147.16899891833017L176.90913971848067,88.07940093949381L177.30137899630114,86.36478773901308L177.69361827412163,54.50522049631268L178.0858575519421,143.4157723496313L178.4780968297626,91.05416454278021L179.26257538540352,130.01693679398048L179.65481466322402,123.20053393063255L180.04705394104448,150.6785514840052L180.43929321886498,118.16397558273414L180.83153249668544,136.2516488403755L181.22377177450593,74.93273023984823L181.6160110523264,71.32034401028652L182.0082503301469,124.36930658230436L182.40048960796736,84.27590313012686L182.79272888578782,83.84125232274198L183.18496816360832,101.80169756110544L183.57720744142878,88.02252570206234L184.36168599706974,113.14642057246085L184.75392527489024,141.63269322352224L185.14616455271073,89.09924672537944L185.5384038305312,99.80850351756601L185.93064310835166,175.1157654664577L186.32288238617213,156.64411696843194L186.71512166399262,135.80338571313146L187.10736094181308,116.55893481834762L187.49960021963358,113.36489156742859L187.89183949745407,143.47453444328087L188.28407877527454,49.61529783164983L188.67631805309503,90.48568171935405L189.0685573309155,90.14577804920688L189.46079660873596,66.97046655033407L189.85303588655643,99.60418394423408L190.24527516437692,149.30492015722487L190.6375144421974,103.28058850976718L191.02975372001788,108.13560433439514L191.42199299783837,114.85793393772613L192.20647155347933,96.37739026038648L192.5987108312998,97.15423592046906L194.16766794258172,145.9260997723757L194.55990722040218,119.4272258207553L194.95214649822267,120.66513827527626L195.34438577604317,152.73320313007721L195.73662505386363,115.9094519529871L196.1288643316841,93.15962653129694L196.52110360950456,106.42692125345705L196.91334288732506,126.52140087449709L197.69782144296602,88.27967724950119L198.0900607207865,94.1805505207358L198.48229999860698,91.00968864621063L199.6590178320684,83.39487605171604L200.05125710988887,128.8323954153431L200.83573566552985,56.35609167082938L202.01245349899128,123.73950093178979L202.40469277681177,70.77261660525949L202.79693205463224,129.9169334144209L203.18917133245273,135.25215414655653L203.5814106102732,101.39481049521555L203.97364988809366,62.50009984331124L204.36588916591415,90.60900125075162L204.75812844373462,84.16848710113902L205.1503677215551,111.29622327516492L205.54260699937558,104.31660734895092L205.93484627719607,67.57318233657443L206.71932483283703,77.44494451881073L207.1115641106575,66.86628513200587L207.50380338847796,108.53952634051372L207.89604266629846,67.8857265915591L208.28828194411892,138.38676142660532L208.68052122193941,83.2327411924032L209.0727604997599,111.00820815101561L209.85723905540084,122.21262992501053L210.24947833322133,86.92814909556151L210.6417176110418,62.046310922857025L211.0339568888623,106.65819591561903L213.38739255578514,101.05975874105778L214.1718711114261,149.1074741315446L214.5641103892466,83.61873806444979L214.9563496670671,110.99014824149945L215.34858894488752,97.3799847894209L215.74082822270802,111.52534153022049L216.1330675005285,110.6893294501559L216.525306778349,189.43633028465274L216.91754605616947,98.04712323796512L217.30978533398994,81.42068534580176L217.7020246118104,78.21895989456613L218.0942638896309,76.70017541443588L218.4865031674514,77.6045186446847L218.87874244527183,57.377824312933186L219.27098172309232,84.1207765939098L219.6632210009128,105.09183570370371L220.0554602787333,143.62763934783564L220.44769955655377,110.9683146195471L221.2321781121947,66.94526354227798L221.6244173900152,84.11821586047094L222.0166566678357,97.39588829183063L222.80113522347662,103.31724743057609L223.19337450129711,128.08695243374754L223.5856137791176,122.83744888409154L223.97785305693807,84.11619422880868L224.37009233475857,122.47409428666221L224.762331612579,63.979664669193724L225.1545708903995,47.820628017343815L225.54681016822,107.21845743695202L225.93904944604049,104.13466049934797L226.33128872386092,108.55637327103251L226.72352800168142,110.87666731752486L227.1157672795019,88.20366389900039L227.50800655732237,102.4804266978466L227.90024583514287,95.11467912414187L228.2924851129633,84.18385150177218L228.6847243907838,83.72022397389499L229.0769636686043,96.97350204986347L229.4692029464248,123.28638588855635L229.86144222424528,105.38928510894351L230.25368150206572,111.7207659242385L231.03816005770668,94.1290663010704L231.43039933552717,72.58831138885297L231.8226386133476,70.75509579751996L232.2148778911681,77.59656689347986L232.6071171689886,83.87184634856412L232.9993564468091,135.44838719323943L233.39159572462958,97.63174531909372L233.78383500245002,97.48241412697517L234.1760742802705,97.23024927096986L234.56831355809098,128.79829722797305L234.96055283591147,69.89778919727962L235.35279211373197,108.47186906755026L235.7450313915524,110.99446105571229L236.1372706693729,126.38285171791053L236.92174922501388,66.78663284451298L237.31398850283432,69.96733332646117L237.7062277806548,110.3742244617324L238.49070633629577,107.44717136567517L238.88294561411627,48.8619030988494L239.2751848919367,94.77989692087239L239.6674241697572,97.50963876669351L240.0596634475777,97.54993662449446L240.45190272539818,130.77302703566394L240.84414200321865,88.67861256418624L241.23638128103912,96.7600177463293L241.62862055885958,90.28432720579345L242.02085983668007,110.20036413877845L242.41309911450057,84.10985978293364L242.80533839232106,109.34076635598754L243.589816947962,57.38941500113008L244.37429550360298,111.02599850964346L244.76653478142342,131.6357246536703L245.15877405924388,52.9146007044503L246.33549189270536,86.4060290249231L247.90444900398728,88.66917828309572L248.29668828180775,110.78461568917018L248.6889275596282,97.71422789091378L249.08116683744868,97.62204148711493L249.47340611526917,103.92656721357983L249.86564539308966,57.33119200925715L250.2578846709101,114.0686889367817L250.6501239487306,137.83687761447186L251.82684178219205,99.81429886166443L252.2190810600125,70.80846687340349L252.61132033783298,62.1878251392149L253.00355961565347,149.23861063870288L253.78803817129446,90.2739494965939L254.1802774491149,79.66644816474087L254.5725167269354,69.48564588906784L255.35699528257635,110.80483200579275L255.74923456039681,146.77868923207075L256.1414738382173,81.42931097422739L256.5337131160378,97.57729603965701L256.92595239385827,110.96494523344337L257.31819167167873,84.08142216421791L257.7104309494992,92.3965279665177L258.10267022731966,110.74297007692775L258.49490950514013,82.15817657619247L258.8871487829606,75.33934775484984L259.2793880607811,136.87606347312405L259.6716273386016,66.58581743272899L260.0638666164221,84.16579159225604L260.4561058942425,35.8861276623865L260.84834517206303,70.7932372482145L261.2405844498835,93.23051841492004L262.4173022833449,69.76759611823036L262.8095415611654,84.16107445171076L263.2017808389859,84.17953868755934L263.5940201168064,96.59936541690209L263.9862593946268,83.07357139286162L264.37849867244734,84.09840387018086L264.7707379502678,70.75981293806521L265.16297722808827,110.8753195630834L265.5552165059088,57.343052248342374L265.9474557837292,84.97633111337622L266.3396950615497,70.64673634042306L266.7319343393702,97.59239088940184L267.1241736171907,97.5767569378804L267.5164128950111,111.00052595069904L268.3008914506521,70.67099592037012L268.69313072847257,123.73882705456906L269.0853700062931,70.68622554555911L269.4776092841135,48.86405950595578L269.869848561934,84.18546880710198L270.2620878397545,96.53575140726313L270.654327117575,84.23614437410252L271.0465663953955,84.17118261002206L271.43880567321594,83.78761169597016L271.8310449510364,96.98603616616943L272.22328422885687,110.87046764709395L272.6155235066774,70.96399773595301L273.0077627844978,83.9359994599797L273.4000020623183,70.76938199459988L273.7922413401388,74.75603963256714L274.1844806179593,97.59050403318375L274.5767198957798,97.32742236620227L274.96895917360024,96.7008513263473L275.3611984514207,83.64852343760698L275.75343772924117,110.66965223530995L276.53791628488216,70.69929876364174L277.3223948405231,37.397364717644315L278.1068733961641,49.33307805159898L279.2835912296255,88.95153283859068L279.675830507446,84.18385150177218L280.06806978526646,84.17873003489444L280.4603090630869,109.54036878877417L280.8525483409074,97.87649752567077L281.2447876187279,38.07838503693601L281.6370268965484,52.2713175095207L282.02926617436884,69.78026500998048L282.4215054521893,70.77436868603345L282.8137447300098,48.961636927520644L283.2059840078303,57.33739167968807L283.59822328565076,70.7351490317857L283.9904625634713,97.49562212050188L285.1671803969327,76.85718880687102L285.55941967475314,74.35467835988743L285.9516589525736,70.74673971998263L286.7361375082146,84.14207111408555L287.12837678603506,35.48638369503655L287.5206160638556,55.97494671477223L287.912855341676,83.84853019672613L288.3050946194965,62.2453742538671L288.697333897317,109.90965350574615L289.08957317513745,103.85203639296466L289.48181245295797,54.419503313833076L289.8740517307784,84.8119050715128L290.65853028641936,57.42216543405865L291.0507695642399,70.75320894130184L291.4430088420603,70.74862657620076L291.8352481198808,89.06946135222223L292.2274873977013,65.35113958886767L293.01196595334227,71.4384072993622L293.4042052311627,62.25683016661987L293.7964445089832,57.38779769580028L294.18868378680367,57.33846988324125L294.5809230646242,86.64687274361977L294.97316234244465,57.325531440602845L295.3654016202651,57.570148871735725L295.7576408980856,70.75105253419545L296.14988017590605,70.75078298330713L296.54211945372657,70.66493102538337L296.93435873154704,57.555054021990856L297.3265980093675,57.37122031616982L297.71883728718797,87.71011622252183L298.1110765650085,72.51903681055967L298.8955551206494,70.87585459547867L299.2877943984699,57.333617967251854L299.68003367629035,57.53766798969549L300.0722729541109,57.325531440602845L300.46451223193134,85.1109717820824L300.8567515097518,62.200089704632575L301.24899078757227,57.33024858114808L301.6412300653928,57.32984425481563L302.8179478988542,70.76075636617426L303.21018717667465,57.364885870294735L303.99466573231564,110.63919298493197L304.3869050101361,57.3356395989141L304.77914428795657,70.74620061820602L305.1713835657771,57.407744461534556L305.56362284359756,84.16794799936245L305.955862121418,90.82976342826989L306.74034067705895,57.70991100731964L307.1325799548795,84.15716596383042L307.52481923269994,57.331865886477885L307.91705851052046,70.75482624663168L308.30929778834087,57.7064068457717L308.7015370661614,57.343860901007275L309.09377634398186,84.05446707538786L309.4860156218023,70.76722558749347L310.27049417744325,57.33550482346998L310.6627334552638,70.74134870221661L311.05497273308424,57.57500078772513L311.44721201090476,83.59623056527664L311.8394512887252,79.5797875541522L312.2316905665457,75.67696024244647L312.62392984436616,57.35396905931857L313.0161691221867,61.98498809576861L313.40840840000715,76.56566952117386L313.80064767782756,70.74431376198793L314.1928869556481,81.32122106801882L314.58512623346854,57.37175941794639L314.97736551128907,62.085261026216465L315.3696047891095,62.28041586934616L315.76184406693,48.84869510532266L316.15408334475046,70.74080960044003L316.546322622571,96.87794625996085L316.93856190039145,57.34871281699668L317.3308011782119,84.14018425786746L317.7230404560324,57.333617967251854L318.11527973385284,57.35221697854461L318.50751901167337,39.08664013462475L318.89975828949383,64.19611403249921L319.68423684513476,67.43315065010223L320.0764761229553,57.41461800918621L320.46871540077575,57.734979239931604L320.8609546785962,96.58319236360404L321.2531939564167,49.166360827185024L321.64543323423715,57.34507388000463L322.03767251205767,63.26966762940973L322.42991178987813,97.27863365541982L323.21439034551906,83.90270992527456L323.6066296233396,77.93620101273869L323.99886890116005,62.29793667708573L324.3911081789805,97.36327263434623L324.783347456801,49.73363067161383L325.17558673462145,81.60910141672396L325.96006529026243,84.13762352442859L326.35230456808296,70.56560152304458L326.74454384590337,97.76705986502068L327.1367831237239,88.71702356576907L327.9212616793648,48.901257528541294L328.3135009571853,69.50599698113456L328.70574023500575,96.89007604993441L329.09797951282627,56.99937486575899L329.88245806846726,67.11036346136214L330.27469734628767,83.98141878465835L330.6669366241082,70.73838364244533L331.05917590192865,83.35943010990448L331.4514151797491,29.46299954506927L331.84365445756964,116.98927281151968L332.23589373539005,59.117236195137544L332.6281330132106,52.46202476299344L333.02037229103104,27.333682302937937L333.41261156885156,48.12454664390282L333.80485084667197,76.48574768279268L334.1970901244925,57.29022027423546L334.58932940231296,60.179671021374716L335.37380795795394,97.23429253429435L335.76604723577435,49.1536919354349L336.55052579141534,70.91291784262002L336.94276506923586,58.35588971113223L337.3350043470563,48.87012440094257L337.7272436248768,70.17043992079574L338.5117221805177,70.89485793310388L338.90396145833824,37.92528013238124L339.2962007361587,96.92336558463954L339.6884400139792,36.90246928672425L340.47291856962016,75.65957421015106L341.2573971252611,52.1304771703836L342.041875680902,110.99176554682926L342.43411495872255,97.48079682164533L342.826354236543,115.88317074137778L343.2185935143635,84.32644392168325L343.61083279218394,57.35356473298612L345.17978990346586,48.84006947689704L345.5720291812863,110.7762596116329L345.96426845910685,97.48443575863743L346.3565077369273,62.3045406738491L346.7487470147478,57.332270212810336L347.53322557038877,62.134049736998875L347.92546484820923,84.13425413832482L348.3177041260297,62.140114631985675L348.70994340385016,70.74148347766078L349.1021826816706,57.31003226452557L349.49442195949115,70.74862657620076L349.8866612373116,75.64245772874398L350.27890051513214,57.33011380570396L350.67113979295254,84.01079983148314L351.06337907077307,57.507478290205796L351.847857626414,57.34035673945939L352.24009690423446,70.76884289282327L352.6323361820549,57.372702846055454L353.02457545987545,70.74957000430977L353.4168147376959,70.55158487685293L353.80905401551644,37.39574741231451L354.20129329333685,70.63433699956126L354.59353257115737,70.48204074767135L354.98577184897783,96.41903587262894L355.3780111267983,57.353295182097796L355.7702504046188,57.63120214793582L356.16248968243923,70.72409744536536L356.55472896025975,57.337930781464685L356.9469682380802,58.91965539401315L357.33920751590074,84.70219785997442L357.7314467937212,48.634671700011886L358.12368607154167,83.11521700510409L358.9081646271826,70.77019064726478L359.3004039050031,83.86847696246036L359.69264318282353,57.374320151385255L360.08488246064405,62.37664553646951L360.4771217384645,70.2139723892563L360.86936101628504,79.52560782560377L361.2616002941055,48.85300791953545L361.65383957192597,57.35033012232652L362.04607884974644,57.07444478815076L362.4383181275669,70.72625385247179L362.8305574053874,53.8705629298087L363.2227966832079,57.3690639090634L364.0072752388488,47.44163946839304L364.39951451666934,57.690503343361975L364.7917537944898,90.84081501469021L365.1839930723103,57.34938669421746L365.9684716279512,57.34116539212428L366.3607109057717,70.88542365201334L366.7529501835922,57.322027279054915L367.14518946141266,58.355215833911494L367.5374287392331,57.343052248342374L367.92966801705364,57.32418368616133L368.7141465726946,57.33550482346998L369.10638585051504,57.343995676451435L369.890864406156,57.44278607701366L370.2831036839765,57.332270212810336L370.67534296179696,57.34763461344349L371.0675822396174,70.75967816262109L371.45982151743794,57.35693411908985L371.8520607952584,76.31539152138667L372.63653935089934,70.74350510932302L373.4210179065403,70.72504087347443L374.2054964621813,70.75320894130184L374.5977357400017,97.01379990766442L374.98997501782225,57.43928191546573L375.3822142956427,83.4175183263333L375.7744535734632,70.74997433064223L376.5589321291041,57.372972396943744L376.95117140692463,57.278360035150236L377.3434106847451,57.03522513390298L378.127889240386,57.34183926934502L378.52012851820655,57.32040997372511L378.912367796027,70.7988978168688L379.3046070738475,57.3018109624324L380.0890856294884,57.343591350118984L380.48132490730893,58.07703931718519L380.8735641851294,70.71574136782807L381.2658034629499,57.33820033235297L381.6580427407704,58.66492980456897L382.05028201859085,57.35841664897553L382.4425212964113,57.43200404148162L382.8347605742318,57.34116539212428L383.2269998520523,57.421491556837864L383.6192391298727,70.73056666668461L384.01147840769323,57.3433217992307L384.4037176855137,70.5054916749535L385.1881962411547,70.7276016069133L385.9726747967956,70.7335317264559L386.3649140746161,57.36865958273095L387.14939263025707,61.01514399966274L387.54163190807753,45.587398907772574L387.933871185898,65.71341598274378L388.3261104637185,68.55677352798365L388.718349741539,57.31515373140326L389.11058901935945,57.40181434199192L389.5028282971799,70.87127223037754L389.8950675750004,57.33820033235297L390.2873068528209,84.2093240607166L390.67954613064137,83.84233052629521L391.07178540846184,57.330652907480534L391.4640246862823,70.74943522886566L392.2485032419233,70.70873304473226L392.64074251974375,70.72490609803026L393.0329817975642,38.965746561221884L393.4252210753847,57.33388751814018L393.8174603532052,82.37098700250586L394.20969963102567,57.70182448067059L394.9941781866666,57.356799343645726L395.7786567423076,70.99836547421133L396.17089602012805,57.354642936539314L396.955374575769,57.38564128869391L397.3476138535895,57.37539835493848L397.73985313141,57.32741829682093L398.1320924092305,83.1390722587187L398.5243316870509,70.75118730963958L398.9165709648714,70.73838364244533L399.3088102426919,57.26865620317138L400.0932887983329,48.80974500196318L400.4855280761533,69.80115520382382L400.8777673539738,57.32957470392735L401.6622459096148,65.19682170531551L402.0544851874352,57.314749405070806L402.4467244652557,57.42041335328468L402.8389637430762,57.29925022899353L403.6234422987172,70.74458331287622L404.01568157653765,57.36394244218567L404.4079208543581,57.334426619916755L404.8001601321786,57.343860901007275L405.58463868781956,57.313536426073455L405.97687796564,57.2357709947987L406.3691172434605,57.37324194783207L406.761356521281,57.463811046301075L407.1535957991015,57.3891454502418L407.54583507692195,57.323240258052266L407.9380743547424,70.28149488677563L408.7225529103834,70.71061990095033L409.11479218820386,70.71385451160994L409.50703146602433,58.3584504445711L409.8992707438448,70.78312908990324L410.2915100216653,69.26097522366922L410.6837492994858,57.29803724999618L411.07598857730625,57.26784755050648L411.4682278551267,57.323644584384716L411.8604671329472,57.38105892359279L412.2527064107677,57.33739167968807L412.64494568858817,57.33927853590615L413.03718496640863,57.32580099149113L413.4294242442291,70.73218397201441L413.8216635220496,57.44642501400571L414.2139027998701,57.294802639336574L414.60614207769055,70.22529352656495L414.998381355511,54.82046026018033L415.782859911152,50.32057773088859L416.1750991889724,57.344669553672176L416.56733846679293,57.54710227078601L416.9595777446134,57.32081430005756L417.3518170224339,57.377285211156575L417.7440563002544,57.34224359567747L418.5285348558954,57.40181434199192L418.92077413371584,65.5972395498862L419.31301341153636,70.75442192029918L419.7052526893567,57.31973609650437L420.09749196717723,57.30032843254671L421.66644907845915,57.82824384728364L422.0586883562797,70.83218735157394L422.45092763410014,68.81486850353157L422.84316691192066,57.57405735961607L423.235406189741,57.33307886547524L423.62764546756154,57.3565297927574L424.019884745382,57.6999376244525L424.4121240232025,57.3541038347627L424.804363301023,57.409496542308524L425.19660257884345,57.37674610937996L425.588841856664,57.382406678034265L425.98108113448444,57.244261847780194L426.37332041230496,57.28644656179924L426.76555969012543,57.32930515303906L427.15779896794584,57.37890251648638L427.5500382457663,58.010055921442465L427.9422775235868,57.284829256469436L428.3345168014073,70.74054004955171L428.72675607922775,68.78926116914299L429.1189953570483,57.36731182828944L429.51123463486874,57.29156802867693L429.90347391268926,57.47917544693423L430.29571319050973,57.22728014181724L430.68795246833014,57.36124693330268L431.0801917461506,57.29668949555466L431.8646703017916,70.75806085729128L432.6491488574326,57.3549124874276L433.04138813525304,62.04428929119477L433.43362741307357,70.69875966186511L433.82586669089403,57.25639163775371L434.21810596871444,58.10224232524127L435.0025845243554,56.76958273348264L435.78706307999636,57.43496910125293L436.1793023578169,69.19709166314195L436.57154163563735,69.70964267724571L436.96378091345787,70.18876938120022L437.7482594690988,57.4249957183858L438.1404987469192,57.40680103342549L438.53273802473973,57.23779262646095L438.9249773025602,57.34709551166688L439.31721658038066,57.2989806781052L440.10169513602165,57.416370089960175L440.49393441384217,57.41475278463037L440.88617369166263,65.02848717557174L441.2784129694831,57.351677876767994L442.06289152512403,68.30649552819646L442.4551308029445,58.25656020879344L442.84737008076496,57.527694606828355L444.02408791422647,57.43416044858803L444.41632719204694,57.21905883972407L444.8085664698674,70.60064313852368L445.2008057476879,57.33698735335562L445.59304502550833,70.72221058914728L445.9852843033288,57.39251483634556L446.37752358114926,61.01258326622387L446.7697628589698,57.250057191878625L447.16200213679025,57.26946485583628L447.5542414146108,57.35706889453402L447.94648069243124,70.12812043133253L448.3387199702517,70.60064313852368L448.7309592480722,63.73383425906349L449.5154378037131,70.48824041810227L449.90767708153356,57.55114553411052L450.2999163593541,69.79037316829178L451.0843949149951,82.77302215240634L451.47663419281554,57.48766629991569L451.868873470636,57.151940668537186L452.2611127484565,72.69640129506155L452.65335202627693,57.071075402046986L453.0455913040974,57.25113539543185L453.43783058191786,57.41259637752396L453.8300698597384,57.90870478744138L454.22230913755885,53.773659385464605L454.6145484153794,69.93027007931985L455.00678769319984,76.96231365330833L455.7912662488408,71.4357117904792L456.1835055266613,57.18482587690987L456.5757448044817,69.59306191805567L456.96798408230217,56.92983073657744L457.3602233601227,57.33388751814018L457.75246263794315,57.55357149210522L458.1447019157637,58.672207678553114L458.53694119358414,57.458420028535095L458.9291804714046,70.29551153296728L459.32141974922513,57.37499402860603L459.7136590270456,70.51438685426741L460.105898304866,70.38042006278198L460.49813758268647,88.27954247405707L460.890376860507,70.41559645370525L461.674855416148,83.35700415190978L462.06709469396844,43.505926948314624L462.4593339717889,57.169191925388425L462.85157324960943,57.31124524352292L463.2438125274299,64.80961185427157L463.6360518052504,62.08067866111534L464.02829108307077,88.68427313284054L465.59724819435274,56.77928656546149L465.9894874721732,68.66890669751673L466.38172674999373,58.32516090986596L466.7739660278142,68.76446248741935L467.55844458345507,56.32698017489292L467.9506838612756,97.39790992349289L468.34292313909606,48.86594636217391L468.7351624169166,72.94128827708272L469.12740169473705,74.24389294479582L469.91188025037803,53.369737379346034L470.3041195281985,76.9146031460791L470.696358806019,62.96399692207672L471.0885980838394,67.62857504412021L471.4808373616599,87.95904646786751L471.87307663948036,82.93502223627506L472.2653159173009,56.80219839096704L472.65755519512135,56.97376753137045L473.0497944729418,56.76985228437097L473.44203375076233,41.79239195138713L473.8342730285828,72.290727208169L474.2265123064033,83.19190423282562L474.6187515842238,95.30174744062256L475.0109908620442,68.25555041030763L475.40323013986466,57.7574867391047" style="fill: none;" fill="none"></path></g></g></g></g></g></g><g transform="translate(50, 377)" clip-path="url(#clip_1)"><clipPath id="clip_1"><rect width="832" height="23"></rect></clipPath><g><g><line x1="5.108336033111119" y1="0" x2="5.108336033111119" y2="5" style="visibility: inherit;" fill="rgb(0, 0, 0)" stroke="rgb(204, 204, 204)" stroke-width="1px"></line><line x1="83.5561915972068" y1="0" x2="83.5561915972068" y2="5" style="visibility: inherit;" fill="rgb(0, 0, 0)" stroke="rgb(204, 204, 204)" stroke-width="1px"></line><line x1="162.00404716130248" y1="0" x2="162.00404716130248" y2="5" style="visibility: inherit;" fill="rgb(0, 0, 0)" stroke="rgb(204, 204, 204)" stroke-width="1px"></line><line x1="240.45190272539818" y1="0" x2="240.45190272539818" y2="5" style="visibility: inherit;" fill="rgb(0, 0, 0)" stroke="rgb(204, 204, 204)" stroke-width="1px"></line><line x1="318.89975828949383" y1="0" x2="318.89975828949383" y2="5" style="visibility: inherit;" fill="rgb(0, 0, 0)" stroke="rgb(204, 204, 204)" stroke-width="1px"></line><line x1="397.3476138535895" y1="0" x2="397.3476138535895" y2="5" style="visibility: inherit;" fill="rgb(0, 0, 0)" stroke="rgb(204, 204, 204)" stroke-width="1px"></line><line x1="475.7954694176852" y1="0" x2="475.7954694176852" y2="5" style="visibility: inherit;" fill="rgb(0, 0, 0)" stroke="rgb(204, 204, 204)" stroke-width="1px"></line><line x1="554.2433249817809" y1="0" x2="554.2433249817809" y2="5" style="visibility: inherit;" fill="rgb(0, 0, 0)" stroke="rgb(204, 204, 204)" stroke-width="1px"></line><line x1="632.6911805458766" y1="0" x2="632.6911805458766" y2="5" style="visibility: inherit;" fill="rgb(0, 0, 0)" stroke="rgb(204, 204, 204)" stroke-width="1px"></line><line x1="711.1390361099722" y1="0" x2="711.1390361099722" y2="5" style="visibility: inherit;" fill="rgb(0, 0, 0)" stroke="rgb(204, 204, 204)" stroke-width="1px"></line><line x1="789.5868916740679" y1="0" x2="789.5868916740679" y2="5" style="visibility: inherit;" fill="rgb(0, 0, 0)" stroke="rgb(204, 204, 204)" stroke-width="1px"></line></g><g transform="translate(0, 8)"><text x="5.108336033111119" y="0" dx="0em" dy="0.95em" style="text-anchor: middle; visibility: inherit; font-family: Roboto, sans-serif; font-size: 12px; font-weight: 200;" fill="rgb(33, 33, 33)" stroke="none" stroke-width="1px">0</text><text x="83.5561915972068" y="0" dx="0em" dy="0.95em" style="text-anchor: middle; visibility: inherit; font-family: Roboto, sans-serif; font-size: 12px; font-weight: 200;" fill="rgb(33, 33, 33)" stroke="none" stroke-width="1px">20k</text><text x="162.00404716130248" y="0" dx="0em" dy="0.95em" style="text-anchor: middle; visibility: inherit; font-family: Roboto, sans-serif; font-size: 12px; font-weight: 200;" fill="rgb(33, 33, 33)" stroke="none" stroke-width="1px">40k</text><text x="240.45190272539818" y="0" dx="0em" dy="0.95em" style="text-anchor: middle; visibility: inherit; font-family: Roboto, sans-serif; font-size: 12px; font-weight: 200;" fill="rgb(33, 33, 33)" stroke="none" stroke-width="1px">60k</text><text x="318.89975828949383" y="0" dx="0em" dy="0.95em" style="text-anchor: middle; visibility: inherit; font-family: Roboto, sans-serif; font-size: 12px; font-weight: 200;" fill="rgb(33, 33, 33)" stroke="none" stroke-width="1px">80k</text><text x="397.3476138535895" y="0" dx="0em" dy="0.95em" style="text-anchor: middle; visibility: inherit; font-family: Roboto, sans-serif; font-size: 12px; font-weight: 200;" fill="rgb(33, 33, 33)" stroke="none" stroke-width="1px">100k</text><text x="475.7954694176852" y="0" dx="0em" dy="0.95em" style="text-anchor: middle; visibility: inherit; font-family: Roboto, sans-serif; font-size: 12px; font-weight: 200;" fill="rgb(33, 33, 33)" stroke="none" stroke-width="1px">120k</text><text x="554.2433249817809" y="0" dx="0em" dy="0.95em" style="text-anchor: middle; visibility: inherit; font-family: Roboto, sans-serif; font-size: 12px; font-weight: 200;" fill="rgb(33, 33, 33)" stroke="none" stroke-width="1px">140k</text><text x="632.6911805458766" y="0" dx="0em" dy="0.95em" style="text-anchor: middle; visibility: inherit; font-family: Roboto, sans-serif; font-size: 12px; font-weight: 200;" fill="rgb(33, 33, 33)" stroke="none" stroke-width="1px">160k</text><text x="711.1390361099722" y="0" dx="0em" dy="0.95em" style="text-anchor: middle; visibility: inherit; font-family: Roboto, sans-serif; font-size: 12px; font-weight: 200;" fill="rgb(33, 33, 33)" stroke="none" stroke-width="1px">180k</text><text x="789.5868916740679" y="0" dx="0em" dy="0.95em" style="text-anchor: middle; visibility: inherit; font-family: Roboto, sans-serif; font-size: 12px; font-weight: 200;" fill="rgb(33, 33, 33)" stroke="none" stroke-width="1px">200k</text></g><line x1="0" y1="0" x2="832.333" y2="0" fill="rgb(0, 0, 0)" stroke="rgb(204, 204, 204)" stroke-width="1px"></line></g></g></g></g></svg>