<svg viewBox="0 0 882.3333740234375 400" xmlns="http://www.w3.org/2000/svg"><g><g><g><g><g><line x1="41.171875" y1="347.08768436598274" x2="36.171875" y2="347.08768436598274" style="visibility: inherit;" fill="rgb(0, 0, 0)" stroke="rgb(204, 204, 204)" stroke-width="1px"></line><line x1="41.171875" y1="302.0676356808126" x2="36.171875" y2="302.0676356808126" style="visibility: inherit;" fill="rgb(0, 0, 0)" stroke="rgb(204, 204, 204)" stroke-width="1px"></line><line x1="41.171875" y1="257.04758699564246" x2="36.171875" y2="257.04758699564246" style="visibility: inherit;" fill="rgb(0, 0, 0)" stroke="rgb(204, 204, 204)" stroke-width="1px"></line><line x1="41.171875" y1="212.02753831047232" x2="36.171875" y2="212.02753831047232" style="visibility: inherit;" fill="rgb(0, 0, 0)" stroke="rgb(204, 204, 204)" stroke-width="1px"></line><line x1="41.171875" y1="167.0074896253022" x2="36.171875" y2="167.0074896253022" style="visibility: inherit;" fill="rgb(0, 0, 0)" stroke="rgb(204, 204, 204)" stroke-width="1px"></line><line x1="41.171875" y1="121.98744094013209" x2="36.171875" y2="121.98744094013209" style="visibility: inherit;" fill="rgb(0, 0, 0)" stroke="rgb(204, 204, 204)" stroke-width="1px"></line><line x1="41.171875" y1="76.9673922549619" x2="36.171875" y2="76.9673922549619" style="visibility: inherit;" fill="rgb(0, 0, 0)" stroke="rgb(204, 204, 204)" stroke-width="1px"></line><line x1="41.171875" y1="31.947343569791755" x2="36.171875" y2="31.947343569791755" style="visibility: inherit;" fill="rgb(0, 0, 0)" stroke="rgb(204, 204, 204)" stroke-width="1px"></line></g><g transform="translate(31.171875, 0)"><text x="0" y="347.08768436598274" dx="0em" dy="0.3em" style="text-anchor: end; visibility: inherit; font-family: Roboto, sans-serif; font-size: 12px; font-weight: 200;" fill="rgb(33, 33, 33)" stroke="none" stroke-width="1px">40</text><text x="0" y="302.0676356808126" dx="0em" dy="0.3em" style="text-anchor: end; visibility: inherit; font-family: Roboto, sans-serif; font-size: 12px; font-weight: 200;" fill="rgb(33, 33, 33)" stroke="none" stroke-width="1px">60</text><text x="0" y="257.04758699564246" dx="0em" dy="0.3em" style="text-anchor: end; visibility: inherit; font-family: Roboto, sans-serif; font-size: 12px; font-weight: 200;" fill="rgb(33, 33, 33)" stroke="none" stroke-width="1px">80</text><text x="0" y="212.02753831047232" dx="0em" dy="0.3em" style="text-anchor: end; visibility: inherit; font-family: Roboto, sans-serif; font-size: 12px; font-weight: 200;" fill="rgb(33, 33, 33)" stroke="none" stroke-width="1px">100</text><text x="0" y="167.0074896253022" dx="0em" dy="0.3em" style="text-anchor: end; visibility: inherit; font-family: Roboto, sans-serif; font-size: 12px; font-weight: 200;" fill="rgb(33, 33, 33)" stroke="none" stroke-width="1px">120</text><text x="0" y="121.98744094013209" dx="0em" dy="0.3em" style="text-anchor: end; visibility: inherit; font-family: Roboto, sans-serif; font-size: 12px; font-weight: 200;" fill="rgb(33, 33, 33)" stroke="none" stroke-width="1px">140</text><text x="0" y="76.9673922549619" dx="0em" dy="0.3em" style="text-anchor: end; visibility: inherit; font-family: Roboto, sans-serif; font-size: 12px; font-weight: 200;" fill="rgb(33, 33, 33)" stroke="none" stroke-width="1px">160</text><text x="0" y="31.947343569791755" dx="0em" dy="0.3em" style="text-anchor: end; visibility: inherit; font-family: Roboto, sans-serif; font-size: 12px; font-weight: 200;" fill="rgb(33, 33, 33)" stroke="none" stroke-width="1px">180</text></g><line x1="41.171875" y1="0" x2="41.171875" y2="377" fill="rgb(0, 0, 0)" stroke="rgb(204, 204, 204)" stroke-width="1px"></line></g></g><g transform="translate(41, 0)" clip-path="url(#clip_0)"><clipPath id="clip_0"><rect width="841" height="377"></rect></clipPath><g><g><g><line x1="4.749659040816291" y1="0" x2="4.749659040816291" y2="377" fill="rgb(0, 0, 0)" stroke="rgb(66, 66, 66)" stroke-width="1px" opacity="0.25"></line><line x1="69.32374642167099" y1="0" x2="69.32374642167099" y2="377" fill="rgb(0, 0, 0)" stroke="rgb(66, 66, 66)" stroke-width="1px" opacity="0.25"></line><line x1="133.8978338025257" y1="0" x2="133.8978338025257" y2="377" fill="rgb(0, 0, 0)" stroke="rgb(66, 66, 66)" stroke-width="1px" opacity="0.25"></line><line x1="198.47192118338037" y1="0" x2="198.47192118338037" y2="377" fill="rgb(0, 0, 0)" stroke="rgb(66, 66, 66)" stroke-width="1px" opacity="0.25"></line><line x1="263.0460085642351" y1="0" x2="263.0460085642351" y2="377" fill="rgb(0, 0, 0)" stroke="rgb(66, 66, 66)" stroke-width="1px" opacity="0.25"></line><line x1="327.6200959450898" y1="0" x2="327.6200959450898" y2="377" fill="rgb(0, 0, 0)" stroke="rgb(66, 66, 66)" stroke-width="1px" opacity="0.25"></line><line x1="392.19418332594444" y1="0" x2="392.19418332594444" y2="377" fill="rgb(0, 0, 0)" stroke="rgb(66, 66, 66)" stroke-width="1px" opacity="0.25"></line><line x1="456.76827070679917" y1="0" x2="456.76827070679917" y2="377" fill="rgb(0, 0, 0)" stroke="rgb(66, 66, 66)" stroke-width="1px" opacity="0.25"></line><line x1="521.3423580876539" y1="0" x2="521.3423580876539" y2="377" fill="rgb(0, 0, 0)" stroke="rgb(66, 66, 66)" stroke-width="1px" opacity="0.25"></line><line x1="585.9164454685086" y1="0" x2="585.9164454685086" y2="377" fill="rgb(0, 0, 0)" stroke="rgb(66, 66, 66)" stroke-width="1px" opacity="0.25"></line><line x1="650.4905328493633" y1="0" x2="650.4905328493633" y2="377" fill="rgb(0, 0, 0)" stroke="rgb(66, 66, 66)" stroke-width="1px" opacity="0.25"></line><line x1="715.064620230218" y1="0" x2="715.064620230218" y2="377" fill="rgb(0, 0, 0)" stroke="rgb(66, 66, 66)" stroke-width="1px" opacity="0.25"></line><line x1="779.6387076110727" y1="0" x2="779.6387076110727" y2="377" fill="rgb(0, 0, 0)" stroke="rgb(66, 66, 66)" stroke-width="1px" opacity="0.25"></line></g><g><line x1="0" y1="347.08768436598274" x2="841.161125" y2="347.08768436598274" fill="rgb(0, 0, 0)" stroke="rgb(66, 66, 66)" stroke-width="1px" opacity="0.25"></line><line x1="0" y1="302.0676356808126" x2="841.161125" y2="302.0676356808126" fill="rgb(0, 0, 0)" stroke="rgb(66, 66, 66)" stroke-width="1px" opacity="0.25"></line><line x1="0" y1="257.04758699564246" x2="841.161125" y2="257.04758699564246" fill="rgb(0, 0, 0)" stroke="rgb(66, 66, 66)" stroke-width="1px" opacity="0.25"></line><line x1="0" y1="212.02753831047232" x2="841.161125" y2="212.02753831047232" fill="rgb(0, 0, 0)" stroke="rgb(66, 66, 66)" stroke-width="1px" opacity="0.25"></line><line x1="0" y1="167.0074896253022" x2="841.161125" y2="167.0074896253022" fill="rgb(0, 0, 0)" stroke="rgb(66, 66, 66)" stroke-width="1px" opacity="0.25"></line><line x1="0" y1="121.98744094013209" x2="841.161125" y2="121.98744094013209" fill="rgb(0, 0, 0)" stroke="rgb(66, 66, 66)" stroke-width="1px" opacity="0.25"></line><line x1="0" y1="76.9673922549619" x2="841.161125" y2="76.9673922549619" fill="rgb(0, 0, 0)" stroke="rgb(66, 66, 66)" stroke-width="1px" opacity="0.25"></line><line x1="0" y1="31.947343569791755" x2="841.161125" y2="31.947343569791755" fill="rgb(0, 0, 0)" stroke="rgb(66, 66, 66)" stroke-width="1px" opacity="0.25"></line></g></g></g><g><g><line x1="0" y1="437.127781736323" x2="841.161125" y2="437.127781736323" fill="rgb(0, 0, 0)" stroke="rgb(153, 153, 153)" stroke-width="1.5px"></line></g></g><g><g><line x1="4.749659040816291" y1="0" x2="4.749659040816291" y2="377" fill="rgb(0, 0, 0)" stroke="rgb(153, 153, 153)" stroke-width="1.5px"></line></g></g><g><g><g><g><g><path stroke="rgb(255, 112, 67)" stroke-width="2px" d="M4.749659040816291,-10.18695956306108L5.072529477720565,26.275906940422715L5.718270351529111,52.405173426763994L6.364011225337658,76.92160290149687L6.686881662241932,118.56059360534L7.009752099146206,132.90873053356665L7.332622536050478,137.76387683563516L7.655492972954752,150.6109870565395L7.978363409859026,161.05875712094482L8.3012338467633,150.53500022325153L8.624104283667572,147.2379594815814L8.946974720571847,156.40764395211085L9.26984515747612,142.46340673378575L9.592715594380394,146.56579623912518L9.915586031284667,141.85982549729397L10.23845646818894,153.42336891199525L10.561326905093214,161.85471350962672L10.884197341997487,156.90018654626505L11.207067778901761,159.45740827776402L11.529938215806034,160.13162938868857L11.852808652710307,159.0888590031893L12.175679089614581,152.59694684066469L12.498549526518854,166.50710947479388L12.821419963423129,157.08606373494334L13.467160837231674,177.29168153772474L14.435772147944496,163.61673045062952L14.758642584848767,164.11580168522917L15.081513021753043,162.5203835987382L15.404383458657314,190.48974121631989L15.727253895561589,188.1103118595191L16.372994769370138,202.5863103829318L16.695865206274412,198.9059503962177L17.018735643178683,187.5926601259684L17.341606080082958,191.28805311338058L17.66447651698723,183.83304693466047L18.310217390795778,186.73197331496863L18.633087827700052,196.3293940181009L18.955958264604323,198.09250941272248L19.278828701508598,184.82520877934442L19.601699138412872,169.15133249017165L19.924569575317147,173.11848190947873L20.570310449125692,185.08271943392765L20.893180886029963,191.39128604963585L21.538921759838512,186.39218577969567L21.861792196742787,197.84822387846418L22.184662633647058,199.92893854757978L22.507533070551332,195.92354223058035L22.830403507455607,200.3223806837977L23.15327394435988,189.77727232975266L23.799014818168427,203.4631220078575L24.121885255072698,206.649980561821L24.444755691976976,192.72947964985053L24.767626128881247,192.76439576245775L25.09049656578552,173.868860172484L25.413367002689792,199.1611696503093L25.736237439594067,212.35277700763206L26.05910787649834,206.53640674858605L26.381978313402616,214.17453135909903L26.70484875030689,227.57172109553534L27.027719187211165,208.3573941196575L27.67346006101971,204.65081843823774L27.996330497923985,215.6939041031824L28.31920093482826,212.51257589631413L28.642071371732534,221.69156655774015L28.9649418086368,204.99273401085287L29.28781224554108,211.262845747559L29.610682682445354,213.00633350095617L29.93355311934963,220.31870089205864L30.256423556253896,232.10617504760245L30.902164430062445,245.3017529941736L31.225034866966723,240.54444064239408L31.870775740775265,246.2414512820018L32.19364617767954,245.85568475022887L32.516516614583814,232.07643670937043L32.83938705148808,243.4893112152086L33.16225748839236,228.23000476095106L33.48512792529664,226.66085827030886L34.13086879910518,225.16107121260248L34.453739236009454,228.5562665987857L34.77660967291373,244.82323915411862L35.099480109818,248.26768057603408L35.42235054672227,245.34474930767183L35.745220983626545,229.7619645108628L36.06809142053082,224.98688865852952L36.71383229433937,226.7931334556717L37.03670273124364,236.2889028097158L37.35957316814792,224.97285826720406L37.68244360505219,234.90295604959087L38.00531404195646,237.33671346823004L38.328184478860734,219.44346477291765L38.65105491576501,228.75071793440247L38.97392535266928,229.78269768418764L39.61966622647783,239.93374874719262L39.94253666338211,224.53074776447352L40.26540710028638,230.26666590792064L40.58827753719065,256.79732058054583L40.91114797409492,251.1825408394912L41.2340184109992,252.75526495068812L41.55688884790347,256.19899043890297L41.87975928480774,252.09629887941296L42.202629721712015,256.76420932334287L42.52550015861629,257.7100218698882L42.848370595520564,254.6082064399231L43.17124103242484,253.7841321858296L43.49411146932911,253.26328122054002L43.81698190623339,250.01250078298108L44.13985234313766,249.52724495699314L44.46272278004193,263.7950446049026L44.785593216946204,259.0378108276934L45.10846365385048,260.03546138161573L45.43133409075475,277.69303061858255L45.75420452765903,282.17069218317016L46.399945401467576,281.3055647701852L46.72281583837185,283.4161383829232L47.69142714908467,269.8103688602787L48.01429758598894,267.4719048979343L48.660038459797484,272.1622986282631L48.98290889670176,266.54260550971134L49.62864977051031,269.78581587783503L50.274390644318856,262.59528125713746L50.59726108122313,260.84284278702654L50.9201315181274,279.1529682697456L51.24300195503167,283.99729937490343L51.56587239193595,275.65703311062356L51.88874282884022,280.3453595477269L52.53448370264877,268.36478087629L52.85735413955304,260.04141817904195L53.18022457645731,275.2159681399392L53.50309501336159,264.69229418289376L54.14883588717014,274.12932271746513L54.47170632407441,259.5507839683113L54.794576760978686,272.85126370867545L55.11744719788296,260.7084155062375L55.44031763478723,267.72676640148507L55.7631880716915,271.64582258238363L56.08605850859578,271.3833786351455L56.731799382404326,265.7604442836322L57.0546698193086,245.13843247633255L57.70041069311715,245.2980427811373L58.02328113002141,251.83603944146046L58.669022003829966,264.53189410510896L58.99189244073424,261.6342345488L59.314762877638515,267.6035154700984L59.960503751447064,280.40267382791535L60.28337418835134,279.0530441614198L60.6062446252556,278.70311851591606L61.25198549906415,272.7682542002083L61.57485593596842,264.3713624367737L61.897726372872704,270.6329738268973L62.22059680977698,268.63076659541355L62.86633768358553,274.765898014343L63.18920812048979,281.5846824622188L63.51207855739406,278.45880022735963L63.83494899429834,275.09598670056425L64.15781943120261,290.4509772927553L64.4806898681069,279.00616756716295L64.80356030501116,272.6886161790133L65.12643074191544,269.7428638628256L65.44930117881971,275.2207029071257L66.09504205262824,284.62664598944815L66.41791248953253,290.5141895074668L67.38652380024536,285.1875015029155L68.67800554786244,280.720257607444L69.00087598476671,280.939505763236L69.64661685857526,268.11998002200585L69.96948729547954,279.106748643571L70.29235773238382,278.84458022104405L70.93809860619236,284.41557476646597L71.26096904309662,278.3255246751103L71.5838394800009,282.79799260515756L71.90670991690517,265.72417329869626L72.22958035380945,276.8322280354594L73.19819166452227,277.4142639949493L73.52106210142654,276.94537450831666L73.84393253833082,284.8953023284916L74.16680297523509,265.87492552217L74.48967341213937,272.9099281764732L74.81254384904364,277.891412476215L75.13541428594792,278.9047544047878L75.45828472285218,289.12797059163904L75.78115515975647,285.5929078468638L76.10402559666073,284.0837103574989L76.426896033565,286.31374043291885L76.74976647046928,295.4421860861736L77.39550734427783,289.80506634926036L77.7183777811821,298.3970379524053L78.04124821808638,292.0842881483652L78.68698909189492,294.4923596587496L79.0098595287992,296.23071286621115L79.33272996570346,282.01915776322755L79.65560040260775,280.6276372547863L79.97847083951201,273.13253165417643L80.3013412764163,275.1128225976862L80.62421171332056,279.4046505781L81.2699525871291,283.52682380438824L81.59282302403338,279.3369118583396L82.23856389784193,285.2746483070766L82.56143433474621,286.3867867435418L82.88430477165048,291.12901758064396L83.53004564545903,297.10429225879005L83.8529160823633,306.67369359233294L84.17578651926756,305.2516194403392L84.49865695617184,296.4575221525289L84.82152739307611,294.18839973464526L85.14439782998039,297.8114973557419L85.46726826688466,308.26934783205024L85.79013870378894,305.5901649221194L86.11300914069322,296.47201944940247L86.43587957759748,291.30189323930966L86.75875001450176,302.8164470985226L87.08162045140602,306.55135391152845L87.4044908883103,312.4178696294152L88.05023176211886,314.5384074830698L88.37310219902312,317.9291303956695L88.6959726359274,311.45479142856635L89.01884307283167,310.8369477745565L89.66458394664022,281.71258441951784L89.98745438354449,271.7270009456477L90.31032482044877,281.1974951774522L90.95606569425732,276.5498867269988L91.60180656806585,286.6263968423523L92.2475474418744,297.76629504135656L92.57041787877868,298.79264627214775L92.89328831568295,305.68720678759126L93.21615875258723,290.69104753145814L93.5390291894915,291.0253604124092L94.18477006330004,285.69175753710533L94.50764050020432,285.68212110362236L94.8305109371086,292.7267552968843L95.15338137401287,274.6382965472321L95.47625181091715,274.2306680821521L95.79912224782142,270.8254549679704L96.1219926847257,270.077457232329L96.44486312162996,278.7627837976659L98.05921530615133,299.418729266747L98.70495617995988,302.07517911834657L99.02782661686416,306.04202999360604L99.6735674906727,302.4372994748511L99.99643792757696,305.0129490606777L100.31930836448124,308.48435483084035L100.64217880138551,308.7531450525145L100.9650492382898,313.35362295462807L101.28791967519406,308.1004461335042L101.61079011209834,307.6159380822434L101.93366054900261,306.22485728278093L102.25653098590688,303.6015762002165L102.57940142281116,312.29691998964216L102.90227185971543,315.1695713490252L103.87088317042826,308.9294647983536L104.19375360733252,296.14077512782654L104.5166240442368,301.1656557931465L104.83949448114107,313.97845217158755L105.16236491804534,310.1715297783495L105.80810579185389,311.6604295742388L106.13097622875816,315.7996527241739L106.45384666566243,309.27101932891156L106.7767171025667,320.1479015609659L107.09958753947097,324.2271167886249L107.42245797637526,326.33876102524755L107.74532841327952,328.9175637502377L108.0681988501838,329.36099687706496L108.39106928708807,326.9304254937942L108.71393972399233,328.5478355459536L109.03681016089662,324.03542341871776L109.35968059780089,330.03813553722324L109.68255103470517,327.0585208402257L110.00542147160944,327.9430789399257L110.32829190851372,321.55531989833344L110.65116234541799,327.9726357949301L111.29690321922654,331.04365489625735L111.61977365613079,331.7416713250257L112.26551452993934,325.4620624746157L112.9112554037479,326.08460373094266L113.55699627755645,325.01000396492475L113.8798667144607,323.4627994511169L114.202737151365,317.30760072910357L114.52560758826925,314.9015880361019L114.84847802517355,314.2051637478444L115.1713484620778,325.18503550503164L115.4942188989821,325.2561938521317L115.81708933588635,328.00747650933647L116.13995977279065,330.0757064855255L116.46283020969491,329.58097925809L116.78570064659917,326.3771946135335L117.10857108350346,326.8944222977244L117.43144152040772,328.5821377353979L117.75431195731201,306.55937594348086L118.07718239421627,307.9602875993198L118.40005283112056,300.78955897072456L118.72292326802481,309.94434223929625L119.04579370492908,302.75737346696144L119.36866414183336,310.0705124108063L119.69153457873763,309.17284724204967L120.01440501564193,306.054147886658L120.33727545254618,292.77070039866834L120.66014588945048,289.9776902021557L120.98301632635473,298.3342910195226L121.30588676325902,305.4372330155111L121.62875720016328,309.7022097110229L121.95162763706755,310.72560855289777L122.27449807397183,309.55641125859074L122.5973685108761,314.8827748675426L122.92023894778038,325.15125600821153L123.24310938468464,326.9424577571919L123.56597982158894,321.1021608793858L124.21172069539746,316.2223487821664L124.53459113230174,323.84103099327973L125.18033200611029,322.9827102006531L125.50320244301456,329.3052200533085L125.82607287991884,337.11173133L126.14894331682311,303.00428790688096L126.47181375372739,267.4700722373267L126.79468419063166,265.4987731442174L127.11755462753592,274.39742491217646L127.76329550134447,268.2416035817933L128.08616593824877,267.85962883000707L128.7319068120573,288.42460791799675L129.05477724896159,291.5933124757364L129.37764768586584,298.9907751826994L129.70051812277012,311.7714707134352L130.02338855967437,313.717050262022L130.66912943348294,310.8498566988559L130.99199987038722,308.93178098430394L131.31487030729147,307.0495246327811L131.63774074419578,317.3189584919631L132.2834816180043,316.4594222330456L132.6063520549086,314.86010673233756L132.92922249181285,319.6365687124557L133.25209292871713,319.21363846824204L133.5749633656214,317.14187711058815L134.22070423942995,313.5442805427397L134.5435746763342,304.524675013657L134.86644511323848,301.6556211842023L135.51218598704705,305.6125087691918L135.8350564239513,309.3490274324617L136.48079729775986,318.14562649113424L137.1265381715684,314.43254239747836L137.44940860847268,309.39805571523993L137.77227904537696,319.39856234221634L138.4180199191855,309.85260254147664L138.74089035608978,317.1350932494864L139.06376079299406,298.937075801583L139.7095016668026,310.19850490412034L140.03237210370688,310.8008889712367L140.35524254061113,321.3128442098055L140.6781129775154,310.34437396842463L141.0009834144197,301.3276952367736L141.32385385132397,314.37844967898064L141.64672428822823,316.5225966513098L142.2924651620368,322.02500534691364L142.93820603584533,324.5331968393162L143.5839469096539,335.8382535232284L144.22968778346242,339.812425584909L145.19829909417524,334.5018741152087L145.52116953107952,335.5790694794492L146.16691040488806,329.41102432856275L146.48978084179234,320.92432343155343L146.81265127869662,328.58951983550327L147.1355217156009,321.0459949598953L147.45839215250516,326.49973862043726L148.10413302631372,319.87576256702846L148.42700346321797,325.3541376913591L148.74987390012225,287.4165928419366L149.07274433702653,294.5295319481278L149.39561477393082,297.8039464753805L149.71848521083507,309.75519277113244L150.04135564773935,312.50030407014737L150.36422608464363,316.45165667120904L150.6870965215479,310.3027970328021L151.00996695845217,318.61443680126916L151.33283739535645,321.4392753951048L151.65570783226073,325.5208710661783L152.30144870606927,324.4945171590083L152.62431914297355,321.7508418583997L152.9471895798778,300.79112784358773L153.27006001678208,299.4187387276508L153.59293045368636,291.91037140691924L153.91580089059065,290.77147482981405L154.2386713274949,297.05781553574957L154.56154176439918,308.83883816188734L154.88441220130346,317.4967207322237L155.20728263820772,318.3414746261007L155.530153075112,321.8784971826453L155.85302351201625,322.26308425710056L156.17589394892056,326.592896272066L156.4987643858248,330.8011075369203L156.8216348227291,330.90173462521864L157.14450525963338,327.56312330662155L157.46737569653766,331.85222549650507L157.7902461334419,325.65711593579533L158.11311657034616,331.45051831032606L158.75885744415473,339.1303452503021L159.081727881059,337.6186514133179L160.37320962867608,331.36064758317826L160.6960800655804,325.4079991522163L161.01895050248464,323.7401036257026L161.34182093938892,313.27763396778886L161.66469137629318,317.05176627019927L161.9875618131975,322.6176861206628L162.31043225010174,323.55074414130087L162.63330268700602,321.8234291353643L163.27904356081456,317.44155233731976L163.60191399771884,324.2597532290855L163.9247844346231,328.2972907687939L164.89339574533594,328.52940684368946L165.2162661822402,323.74156203410985L165.86200705604875,328.46020423297375L166.83061836676157,330.0788241113719L167.15348880366585,335.11335150831223L167.4763592405701,332.6396655692231L167.7992296774744,320.11858325995274L168.12210011437867,312.49449661398853L168.44497055128292,317.7578966134367L168.7678409881872,327.30513787517947L169.09071142509148,318.58801729913296L169.41358186199577,319.19456513879686L169.73645229890002,323.733839568797L170.0593227358043,333.69228047718457L170.70506360961284,326.63915322037616L171.02793404651712,319.7392983509222L171.3508044834214,328.81070817711634L171.67367492032568,335.78242629807136L171.99654535722993,331.48825674354197L172.31941579413422,335.11882484119815L172.6422862310385,330.82173142515313L173.28802710484703,328.85337489524653L173.6108975417513,330.6933088746206L173.9337679786556,338.64659058976883L174.25663841555985,334.3897131529997L176.1938610369855,339.56139621301L176.83960191079404,321.08131617898204L177.16247234769833,328.58861392847984L177.4853427846026,330.6558400463751L177.80821322150686,335.9465237617534L178.13108365841114,331.91686407731294L178.45395409531542,333.7527951506107L178.77682453221968,335.0611296087141L179.09969496912396,338.73772866204695L179.42256540602824,341.09453919254247L179.74543584293252,349.6544762911138L180.06830627983678,348.1955709006117L180.39117671674106,345.5584342556558L180.71404715364534,345.3934944950761L181.0369175905496,352.116885688006L181.35978802745387,350.9144064615219L181.68265846435813,332.2851600122567L182.00552890126244,326.2281549451229L182.65126977507097,328.76001416981325L182.97414021197525,335.2138693199782L183.29701064887954,331.2791580556109L183.94275152268804,336.3135763578875L184.26562195959235,332.66197117665956L184.5884923964966,334.7932823999752L184.9113628334009,343.4242320361506L185.23423327030514,339.44608964823163L185.55710370720945,349.2051992564193L185.8799741441137,350.12760843697606L186.20284458101798,349.32275175926424L186.52571501792227,351.608712258769L186.84858545482652,351.0584423349638L187.1714558917308,350.51027291073314L187.49432632863505,343.8230725040406L187.81719676553936,338.3474117661148L188.14006720244362,340.7131353642905L188.4629376393479,344.24609580323204L188.78580807625215,337.80445826412364L189.10867851315643,340.93138070626054L189.43154895006072,338.9310638372126L189.75441938696497,340.3039636306145L190.07728982386928,341.2061533595585L190.7230306976778,340.83410344980405L191.04590113458207,343.1480805110202L191.36877157148638,346.53131873410615L191.69164200839063,350.2256694096388L192.01451244529488,348.2735597352649L192.33738288219917,330.11000083575186L192.66025331910345,331.7394586196302L192.98312375600773,338.8456914417997L193.30599419291198,342.135354620909L193.6288646298163,345.2469295674949L193.95173506672054,350.4596233714711L194.2746055036248,345.8590189322781L194.59747594052908,341.1495037260521L194.92034637743336,338.32837656833107L195.5660872512419,345.3980267598716L195.88895768814618,354.0598838945421L196.21182812505046,348.55287124410273L196.857568998859,349.8897040563167L197.18043943576328,355.7509743056295L197.50330987266756,351.345905343602L197.8261803095718,347.8572748470002L198.1490507464761,346.8346176087508L198.47192118338037,342.87366009392434L198.79479162028466,346.6462179320937L199.1176620571889,345.3951717468869L199.4405324940932,338.3982080618521L199.76340293099747,335.6866786066416L200.08627336790173,342.71692546056727L200.409143804806,338.5845538583758L201.05488467861457,347.0884434749129L201.7006255524231,348.1840334419892L202.0234959893274,345.73791261529794L202.34636642623164,353.5770511755911L203.31497773694448,355.1647699438104L204.60645948456155,356.11219754768643L204.92932992146584,347.7791753081359L205.25220035837012,350.5316294206679L205.5750707952744,330.5239321476712L205.89794123217865,325.2200372135801L206.22081166908293,323.853549871529L206.54368210598722,316.748120609236L206.8665525428915,319.0818636856843L207.8351638536043,325.1794043863445L208.15803429050857,339.338317966541L208.48090472741285,342.8805402443787L208.80377516431713,335.00368223430013L209.44951603812567,337.8408957641788L209.77238647502992,344.3086986659744L210.09525691193423,353.36077994095723L210.74099778574276,350.3671928687059L211.06386822264705,344.2908661114739L211.3867386595513,350.9584607343785L211.7096090964556,349.0697245381185L212.03247953335986,351.704641523281L212.35534997026414,359.7718918432054L212.67822040716845,359.8051087994119L213.0010908440727,356.0396240503844L213.32396128097696,359.665092291556L213.64683171788124,352.0279144087117L213.96970215478555,351.6718530711512L214.2925725916898,354.65548398856515L214.61544302859406,359.5066700087661L214.93831346549834,363.6503340627659L215.2611839024026,364.37337376855106L215.5840543393069,359.25020020078875L216.5526656500197,361.22857993406546L216.875536086924,358.74578960256935L217.19840652382825,348.226630072987L217.52127696073254,344.75556859146485L217.8441473976368,333.20280137935737L218.16701783454107,338.08091458686016L218.48988827144538,336.2760473468046L218.81275870834963,324.0213149534957L219.1356291452539,337.5396432767219L219.45849958215817,340.22859792191156L219.78137001906248,342.49211184330835L220.10424045596673,344.66532928073934L220.42711089287099,344.258558344887L220.74998132977527,345.1614367545249L221.39572220358383,345.827739006741L221.71859264048808,346.7287716401805L222.04146307739236,350.1287956201134L222.36433351429662,344.587201894689L222.68720395120087,352.07366925135494L223.01007438810518,350.60017339011296L223.33294482500946,351.0028595464038L223.65581526191372,355.29441398347785L223.97868569881797,358.88812652399224L224.30155613572228,357.98394766104633L224.62442657262656,356.10636055020484L224.9472970095308,361.77338178558705L225.2701674464351,361.92085032704307L225.59303788333935,357.8405701551375L225.91590832024366,359.21771511359515L226.2387787571479,354.4404706078072L226.5616491940522,358.8305515383489L226.88451963095645,358.2903504016462L227.20739006786076,358.22122952388753L227.530260504765,352.4148915391062L228.17600137857355,358.570578358735L228.8217422523821,354.89472760994295L229.46748312619064,357.0098222007538L230.4360944369035,357.26433069775743L230.75896487380774,352.79725997488845L231.081835310712,352.6002336008726L231.40470574761628,351.33734031026387L231.7275761845206,354.8504294408655L232.05044662142484,359.94056232074854L232.37331705832912,356.8039766183687L232.69618749523337,362.6018931249888L233.01905793213763,360.588653568593L233.34192836904194,364.0133625603158L233.66479880594622,357.66779213248367L233.98766924285047,359.5236053057074L234.31053967975473,356.7667916991212L235.27915099046757,344.885168047206L235.60202142737182,351.34229325890584L235.9248918642761,354.7670445462291L236.57063273808467,340.076887563478L236.89350317498892,338.9327880924984L237.2163736118932,348.29727959894274L237.5392440487975,347.6164925317897L237.86211448570177,352.11585201947366L238.18498492260602,346.51826573250264L238.5078553595103,346.5075408244098L238.83072579641455,353.1805269455261L239.15359623331886,343.79267455563786L239.7993371071274,348.99408358875615L240.12220754403165,354.62118198441925L240.44507798093596,354.3714331775782L240.76794841784024,353.2751090875967L241.0908188547445,362.38954043348525L241.73655972855303,361.68090703760356L242.05943016545734,365.60537462909326L242.3823006023616,368.963071244398L242.70517103926585,372.9288648282421L243.02804147617013,364.575525238359L243.35091191307438,367.6224440574678L243.6737823499787,368.22270058693124L243.99665278688295,367.72819590901605L244.31952322378723,363.07592051719496L244.64239366069148,359.7376389039178L244.9652640975958,360.5558832712661L245.28813453450005,354.91219565446556L245.61100497140433,355.2703732679478L245.93387540830858,357.2527921173172L246.57961628211714,356.4191611717119L246.90248671902143,362.1491838066302L247.22535715592568,362.5055384405704L247.54822759282996,360.8741653418633L247.87109802973427,361.2267117380102L248.19396846663852,361.7279853831122L248.51683890354278,362.33101163257754L248.83970934044706,367.22293543363065L249.80832065115987,367.50913975340677L250.13119108806416,365.3175296137575L250.77693196187272,359.28876123239866L251.09980239877697,365.0599107850846L251.42267283568125,368.290847148705L251.7455432725855,371.53677026989305L252.06841370948976,345.76066820979463L252.39128414639407,339.66398026462474L253.0370250202026,345.46830435678373L253.35989545710686,350.37919791372514L253.68276589401114,358.85480858101585L254.00563633091545,360.76327021909924L254.3285067678197,362.83912860248836L254.65137720472399,365.24278019454414L254.97424764162824,365.1494543868666L255.29711807853255,359.2018440364358L255.94285895234108,365.1980528821535L256.26572938924534,366.5674915216204L256.5885998261496,368.38084808882473L256.9114702630539,364.6053094727432L257.2343406999582,358.0318597356701L257.55721113686246,361.2398026279957L257.8800815737667,365.94850943168393L258.202952010671,367.1453563745342L258.52582244757525,366.23613671918554L258.84869288447953,364.13341656293875L259.1715633213838,362.0391066018659L259.49443375828804,368.83634258391936L259.8173041951924,365.63560259847054L260.14017463209666,369.8464783037781L260.4630450690009,364.9139408785465L260.78591550590517,368.24935621074115L261.10878594280945,363.0422867018178L261.43165637971373,366.28338156598204L261.754526816618,364.9283531763579L262.07739725352224,368.41931352339174L262.4002676904265,370.28789129919613L262.72313812733086,371.07077106063474L263.0460085642351,367.1507556510947L263.69174943804364,365.0600970755713L264.0146198749479,364.85906637809296L264.3374903118522,366.05783606472073L264.6603607487565,346.47324723565794L264.9832311856607,348.0487745725496L265.306101622565,345.7785056949475L265.6289720594693,351.3807781464438L265.95184249637356,353.33872389636224L266.59758337018206,356.04855300390426L266.92045380708635,350.2147796680009L267.2433242439907,356.26844032465397L267.5661946808949,360.60393243693056L267.8890651177992,362.2353810935126L268.2119355547035,357.16257917402714L268.85767642851204,356.8751738393062L269.18054686541626,362.82942028243605L269.50341730232054,358.603929118506L269.8262877392248,360.782560368974L270.4720286130334,363.53587834944625L270.79489904993767,361.289794181037L271.1177694868419,363.34329343118236L271.44063992374623,356.48778503404003L272.08638079755474,352.8966729921005L272.409251234459,355.26441309281995L272.7321216713633,359.35636566566035L273.0549921082676,345.69889743772126L273.37786254517187,349.62947326241806L273.7007329820761,333.6330021597858L274.0236034189804,340.03796897549273L274.3464738558847,328.7294968813268L274.66934429278894,342.38813616318885L274.9922147296932,352.32144251418316L275.3150851665975,357.7125257835697L275.6379556035017,362.63084388750235L275.96082604040606,359.7648554391451L276.60656691421457,354.58979708702736L276.92943735111885,354.3103032050581L277.5751782249274,352.1915343039293L277.8980486618317,355.40384692499686L278.2209190987359,363.14270961004956L278.5437895356402,360.763391483416L279.18953040944876,362.3350133616204L279.51240084635305,365.9266788426138L279.8352712832573,360.40189091995444L280.15814172016155,361.83300070350117L280.8038825939701,363.24834796634093L281.4496234677787,367.1421147418906L282.09536434158724,362.46989370369766L282.4182347784915,360.8027203492928L282.74110521539575,345.4149468777375L283.06397565230003,345.2727728469168L283.3868460892043,339.2827121818117L284.67832783682144,343.0062884629402L285.0011982737257,340.7120435588096L285.32406871062994,339.0804590297398L285.6469391475342,337.92098091217866L285.9698095844385,350.9431507280879L286.61555045824707,351.46611877858703L286.93842089515135,348.5317940486203L287.2612913320556,354.8329554583132L287.58416176895986,360.4447711353645L287.90703220586414,365.08909215504616L288.2299026427684,367.5850339009369L288.5527730796727,365.0655817870425L288.87564351657693,355.04160000419665L289.19851395348127,351.84809109836186L289.52138439038555,356.17461562582605L290.16712526419406,363.9427095660791L290.48999570109834,358.4842407483436L290.8128661380026,361.3158364892331L291.1357365749069,360.64461744866566L291.4586070118111,364.3127172431251L291.7814774487154,359.5177101618466L292.10434788561975,359.98636888017586L292.42721832252397,353.7120553435082L292.75008875942825,356.5623492009627L293.07295919633253,357.9824224932797L293.39582963323676,359.454917562301L293.7187000701411,362.0091629070612L294.0415705070454,361.97641228929024L294.3644409439496,367.6379566930097L294.6873113808539,368.2506571821065L295.01018181775817,367.7990037479488L295.33305225466245,367.92192165704233L295.97879312847095,365.537669177523L296.30166356537524,361.332283880055L296.6245340022796,362.44787905943105L296.9474044391838,363.53032066833623L297.2702748760881,361.6748928217116L297.59314531299236,349.2189552013981L297.9160157498966,354.7692085504643L298.2388861868009,356.8864894255992L298.56175662370515,362.4608456357599L298.88462706060943,359.41924290373044L299.2074974975137,363.3210552660411L299.530367934418,362.8598823379693L300.17610880822656,363.60273127975086L300.4989792451308,352.95557648823143L300.82184968203507,349.2216639252017L301.1447201189394,347.58341557365674L301.7904609927479,346.9007811178398L302.1133314296522,347.4725174265771L302.4362018665565,343.08329852942086L302.75907230346075,351.64257934550994L303.081942740365,355.1438285659617L303.40481317726926,357.4857323964952L304.0505540510778,356.3895437259938L304.3734244879821,361.4576135977887L305.0191653617906,361.7662315907146L305.34203579869495,367.5564537473636L305.6649062355992,358.6608811162482L305.98777667250346,358.57982537663196L306.31064710940774,359.5967222904606L306.63351754631196,361.48866027919473L307.2792584201206,365.7458867849726L307.9249992939291,360.5401892463007L308.57074016773765,362.7131645038066L308.89361060464194,360.1084416268279L309.2164810415462,354.5860198784648L309.53935147845044,360.098549669554L309.8622219153548,355.1305732297026L310.5079627891633,357.97751574895426L310.83083322606757,359.11257829394367L311.1537036629718,359.4840961167125L311.7994445367804,361.38621148578113L312.12231497368464,362.2779387320426L312.4451854105889,362.3639527146442L312.7680558474932,361.07111129367405L313.41379672130176,365.2539025541486L313.736667158206,368.2013851935515L314.05953759511027,370.8787235360637L314.3824080320146,370.00517350114126L314.70527846891883,371.4434662070789L315.0281489058231,357.63839564848007L315.3510193427274,355.0871557992909L315.6738897796317,355.75096065580857L315.99676021653596,357.1445434482323L316.31963065344024,362.63061580810836L316.64250109034447,367.76306922251837L316.96537152724875,356.7373916747458L317.6111124010573,363.7915886469544L318.2568532748658,319.1498811019468L318.5797237117701,326.87273144859086L319.22546458557866,342.9129386390565L319.54833502248295,337.3092303580151L319.8712054593872,343.77682004472723L320.1940758962915,352.2383850088299L320.5169463331958,355.3623691684357L320.8398167701,361.8614660791339L321.1626872070043,365.8976945371844L321.4855576439086,365.08862348866717L321.80842808081286,360.5817672089985L322.13129851771714,361.35863896979413L322.4541689546214,354.4216513715414L322.77703939152565,352.6549202623207L323.42278026533427,360.20038222443395L323.7456507022385,365.67706233803403L324.0685211391428,367.38939864367836L324.39139157604706,362.4712461352342L324.71426201295134,362.95387524995255L325.0371324498556,346.26010373146744L325.6828733236641,356.0896288154881L326.3286141974727,359.09844692391437L326.65148463437697,327.6692922526269L327.2972255081855,333.740861415127L327.6200959450898,329.75617592318355L327.94296638199404,336.85807847935683L328.2658368188983,340.162622977915L328.5887072558026,344.1763799602812L328.9115776927069,345.6642772370585L329.23444812961117,348.41199397478033L329.8801890034197,356.2923433823475L330.20305944032395,363.1918656609186L330.5259298772283,360.186255483007L331.1716707510368,361.66586115617673L331.4945411879411,358.0058824655871L331.8174116248453,355.96540731515773L332.14028206174964,356.95952194445834L332.78602293555815,363.46696731381803L333.10889337246243,364.04270492099994L333.4317638093667,358.69225881991485L333.754634246271,365.45346206825326L334.4003751200795,366.9840558193178L334.7232455569838,368.22227382790686L335.04611599388807,368.824462024805L335.36898643079235,367.291453145716L335.69185686769663,363.51266932827775L336.0147273046009,355.5169900918914L336.3375977415052,365.4433387755292L336.9833386153137,355.2142495108967L337.306209052218,350.6915748879929L337.62907948912226,348.95420709067923L337.95194992602654,351.8519680566692L338.2748203629308,363.3949482415424L338.5976907998351,365.4682059316999L338.92056123673933,369.5533933630549L339.2434316736436,357.4984496555825L339.5663021105479,323.94570204196555L339.8891725474522,326.91745958905136L340.21204298435646,319.2606405696876L340.5349134212607,317.6016933874641L340.857783858165,290.1153966106056L341.1806542950693,299.12208767765014L341.5035247319735,307.996247752964L341.8263951688778,315.75775550491335L342.1492656057821,320.4513777098278L342.79500647959065,317.34676133987L343.11787691649494,328.2843661834188L343.44074735339916,331.10993050333417L343.7636177903035,331.1365713419441L344.0864882272077,315.76465841528585L344.409358664112,311.65207549224675L345.0550995379205,313.8751262515635L345.37796997482485,310.4501968734789L345.70084041172913,311.3175787014335L346.02371084863336,319.6782462541423L346.34658128553764,333.7152567040223L347.6380630331547,336.8239932981579L347.960933470059,330.08255478791864L348.2838039069633,335.8300090934982L348.60667434386755,336.65517561274027L348.92954478077183,331.4728692870205L349.2524152176761,338.1803991991365L349.5752856545804,332.0756569295135L349.8981560914847,331.74872669409444L350.22102652838896,326.97697401276537L350.5438969652932,323.64378315196285L350.86676740219747,333.91746490388726L351.18963783910175,339.4063972680643L351.51250827600603,340.48615532272623L351.8353787129103,333.13424096981805L352.15824914981454,328.8196159030065L352.4811195867188,328.18425250447393L352.80399002362316,344.3259868892714L353.1268604605274,333.9394282868859L353.44973089743166,314.49087398208985L353.77260133433595,320.51307283092024L354.0954717712402,315.655831098653L354.4183422081445,335.687489276823L354.74121264504873,334.2349390833756L355.064083081953,333.3589884348778L355.3869535188573,323.50175995637574L356.03269439266586,315.84276889671025L356.67843526647437,318.97507633416274L357.0013057033787,331.00347430179494L357.32417614028293,327.3556240609315L357.6470465771872,329.40810050208523L357.9699170140915,330.1037024285021L358.61565788790006,331.10996986847977L359.26139876170856,330.0723045507578L359.58426919861284,323.42359570926885L359.9071396355172,326.4674031518803L360.2300100724214,334.47390795131736L360.87575094622997,346.0014097431879L361.1986213831342,350.7446128946569L361.52149182003853,343.1068591539439L361.84436225694276,329.3459416388865L362.16723269384704,338.47161846294824L362.81297356765555,339.01030995668344L363.1358440045599,338.098341536288L363.45871444146417,336.33501259144145L363.7815848783684,345.5353158321316L364.42732575217696,341.51779547628666L364.75019618908124,347.4747809818319L365.0730666259855,340.8873291780225L366.04167793669836,343.68831191693965L366.3645483736026,337.36394932607186L366.68741881050687,349.23442612360617L367.01028924741115,352.74707956251626L367.33315968431543,357.6228763543533L367.6560301212197,360.740836501774L367.978900558124,356.9453572919915L368.3017709950282,356.43155307728586L368.6246414319325,354.62515313858705L368.9475118688368,352.6150175676436L369.27038230574107,350.23772182527375L369.59325274264535,351.43606556389597L369.9161231795496,355.1653616530057L370.5618640533582,356.59857070743146L370.8847344902624,355.50968707309L371.2076049271667,358.71924963187104L371.85334580097526,350.25531740350056L372.17621623787954,350.11507404809015L372.4990866747838,345.47636451268755L372.82195711168805,340.8841896001213L373.14482754859233,341.13053951908716L373.4676979854966,340.6638954627887L373.7905684224009,342.8706800623471L374.1134388593052,345.130536663763L374.4363092962094,349.0406218971582L374.75917973311374,347.86336786597076L375.082050170018,346.218389061429L375.7277910438265,350.88610427132414L376.0506614807308,349.24801049415066L376.3735319176351,349.9650670540048L376.6964023545394,351.47838639121915L377.0192727914436,356.85432381034036L377.3421432283479,359.3613213306964L377.6650136652522,345.2655055516203L377.98788410215644,341.36869347402654L378.3107545390607,335.5057828935932L378.633624975965,344.3459320580385L378.95649541286923,341.613235993385L379.27936584977357,339.91729520713653L379.60223628667785,324.36702257113353L379.9251067235821,328.0025553853496L380.57084759739064,328.2065197403552L380.8937180342949,343.17530803864594L381.2165884711992,350.53158539665446L381.5394589081034,354.3127760251513L381.8623293450077,358.3208342402872L382.18519978191205,355.5102961572762L382.5080702188163,352.99255943076946L383.7995519664334,355.62874776735447L384.1224224033376,362.4177071460227L384.4452928402419,366.50774306269415L384.7681632771462,365.3105061513995L385.41390415095475,362.5159597955868L385.73677458785903,364.8297757529304L386.05964502476326,333.420258139308L386.38251546166754,330.02335698394387L386.7053858985719,334.8514606666403L387.3511267723804,330.50305305078814L387.67399720928466,330.5277939893932L387.99686764618895,332.62166956671217L388.3197380830932,341.6259105320791L388.64260851999745,347.1886590534665L388.96547895690173,345.27745657643743L389.288349393806,354.19443094559176L389.6112198307103,359.59101398380665L389.9340902676146,349.5303741844074L390.25696070451886,354.83081839095297L390.5798311414231,342.89421386609865L390.9027015783274,336.8184106601214L391.22557201523165,332.02479246990356L391.54844245213593,342.49928553098476L391.8713128890402,347.2622328286875" style="fill: none;" fill="none"></path></g></g></g></g><g opacity="0.2"><g><g><g><path stroke="rgb(255, 112, 67)" stroke-width="2px" d="M4.749659040816291,-10.18695956306108L5.072529477720565,48.15362684251302L5.718270351529111,77.48926925365154L6.364011225337658,105.75292396378289L6.686881662241932,172.92445986827747L7.009752099146206,152.75736923459831L7.332622536050478,144.706813729934L7.655492972954752,169.34219709087614L7.978363409859026,176.46718859108543L8.3012338467633,134.90844771090084L8.624104283667572,142.322302285941L8.946974720571847,170.11226963994955L9.26984515747612,121.59258126019681L9.592715594380394,152.71134348902478L9.915586031284667,134.80640107649864L10.23845646818894,170.76052852732408L10.561326905093214,174.4981625436074L10.884197341997487,149.46965405508186L11.207067778901761,163.29285130802003L11.529938215806034,161.14289942859529L11.852808652710307,157.52476061294655L12.175679089614581,142.85929221601293L12.498549526518854,187.3720787940916L12.821419963423129,142.95460672643574L13.467160837231674,207.5999646290134L14.435772147944496,143.10436213740633L14.758642584848767,164.8644072601422L15.081513021753043,160.12725891834432L15.404383458657314,232.443751878961L15.727253895561589,184.5411691393924L16.372994769370138,224.30030336765222L16.695865206274412,193.38541114841502L17.018735643178683,170.6227260711741L17.341606080082958,196.83114232980537L17.66447651698723,172.65053798697238L18.310217390795778,191.08036281067896L18.633087827700052,210.72552492431146L18.955958264604323,200.7371824882879L19.278828701508598,164.92425790317344L19.601699138412872,145.6405181087927L19.924569575317147,179.06920603048468L20.570310449125692,203.02907570620704L20.893180886029963,200.8541359686445L21.538921759838512,178.89353537695052L21.861792196742787,215.03228102363994L22.184662633647058,203.05001055092876L22.507533070551332,189.91544775545594L22.830403507455607,206.92063836337672L23.15327394435988,173.95960979904018L23.799014818168427,223.99189652473828L24.121885255072698,211.43026839272756L24.444755691976976,171.84872828199602L24.767626128881247,192.81676993136844L25.09049656578552,145.52555678757287L25.413367002689792,237.09963386700744L25.736237439594067,232.1401880436037L26.05910787649834,197.81185136002028L26.381978313402616,225.631718274866L26.70484875030689,247.66750570018715L27.027719187211165,179.53590365584307L27.67346006101971,199.09095491610836L27.996330497923985,232.2585326005989L28.31920093482826,207.74058358601192L28.642071371732534,235.46005254987898L28.9649418086368,179.94448519052204L29.28781224554108,220.66801335261815L29.610682682445354,215.621565131052L29.93355311934963,231.2872519787123L30.256423556253896,249.78738628091813L30.902164430062445,265.0951199140303L31.225034866966723,233.40847211472484L31.870775740775265,254.78696724141335L32.19364617767954,245.2770349525695L32.516516614583814,211.4075646480827L32.83938705148808,260.6086229739659L33.16225748839236,205.34104507956482L33.48512792529664,224.3071385343456L34.13086879910518,222.91139062604287L34.453739236009454,233.64905967806047L34.77660967291373,269.223697987118L35.099480109818,253.43434270890734L35.42235054672227,240.96035240512856L35.745220983626545,206.38778731564923L36.06809142053082,217.82427488002958L36.71383229433937,229.50250065138496L37.03670273124364,250.532556840782L37.35957316814792,207.9987914534365L37.68244360505219,249.79810272317107L38.00531404195646,240.98734959618886L38.328184478860734,192.60359172994896L38.65105491576501,242.71159767662976L38.97392535266928,231.3306673088652L39.61966622647783,255.16032534170006L39.94253666338211,201.42624629039477L40.26540710028638,238.87054312309138L40.58827753719065,296.5933025894836L40.91114797409492,242.7603712279092L41.2340184109992,255.11435111748355L41.55688884790347,261.36457867122533L41.87975928480774,245.94226154017787L42.202629721712015,263.7660749892379L42.52550015861629,259.12874068970615L42.848370595520564,249.95548329497544L43.17124103242484,252.54802080468943L43.49411146932911,252.48200477260562L43.81698190623339,245.13633012664266L44.13985234313766,248.79936121801126L44.46272278004193,285.19674407676683L44.785593216946204,251.9019601618796L45.10846365385048,261.53193721249914L45.43133409075475,304.1793844740327L45.75420452765903,288.88718453005157L46.399945401467576,280.00787365070767L46.72281583837185,286.5819988020302L47.69142714908467,249.4017145763119L48.01429758598894,263.9642089544176L48.660038459797484,279.19788922375625L48.98290889670176,258.11306583188383L49.62864977051031,274.6506314300205L50.274390644318856,251.809479326091L50.59726108122313,258.2141850818603L50.9201315181274,306.6181564938241L51.24300195503167,291.26379603264024L51.56587239193595,263.14663371420374L51.88874282884022,287.3778492033819L52.53448370264877,250.39391286913457L52.85735413955304,247.55637413316992L53.18022457645731,297.97779308128503L53.50309501336159,248.9067832473256L54.14883588717014,288.28486551932224L54.47170632407441,237.68297584458048L54.794576760978686,292.8019833192216L55.11744719788296,242.49414320258055L55.44031763478723,278.2542927443564L55.7631880716915,277.52440685373153L56.08605850859578,270.9897127142883L56.731799382404326,257.32604275636226L57.0546698193086,214.20541476538307L57.70041069311715,245.53745823834447L58.02328113002141,261.6430344319451L58.669022003829966,283.57567610058175L58.99189244073424,257.28774521433655L59.314762877638515,276.557436852046L59.960503751447064,299.6014113646409L60.28337418835134,277.0285996616764L60.6062446252556,278.17823004766046L61.25198549906415,263.8659577266467L61.57485593596842,251.7760247916219L61.897726372872704,280.0253909120826L62.22059680977698,265.62745574818797L62.86633768358553,283.96859514273723L63.18920812048979,291.8128591340324L63.51207855739406,273.769976875071L63.83494899429834,270.05176641037116L64.15781943120261,313.4834631810419L64.4806898681069,261.83895297877456L64.80356030501116,263.2122890967887L65.12643074191544,265.3242353885439L65.44930117881971,283.4374614735759L66.09504205262824,298.7355606129318L66.41791248953253,299.34550478449495L67.38652380024536,277.19746949608856L68.67800554786244,274.0193917642368L69.00087598476671,281.268377996924L69.64661685857526,248.8906914101605L69.96948729547954,295.58690157591866L70.29235773238382,278.4513275872538L70.93809860619236,292.77206658459886L71.26096904309662,269.1904495380768L71.5838394800009,289.5066945002283L71.90670991690517,240.1134443390044L72.22958035380945,293.4943101406042L73.19819166452227,278.287317934184L73.52106210142654,276.2420402783677L73.84393253833082,296.820194058754L74.16680297523509,237.34436031268754L74.48967341213937,283.4624321579281L74.81254384904364,285.36363892582784L75.13541428594792,280.4247672976469L75.45828472285218,304.46279487191595L75.78115515975647,280.2903137297009L76.10402559666073,281.8199141234515L76.426896033565,289.65878554604893L76.74976647046928,309.1348545660557L77.39550734427783,281.3493867438905L77.7183777811821,311.28499535712274L78.04124821808638,282.61516344230506L78.68698909189492,298.1044669243262L79.0098595287992,298.8382426774035L79.33272996570346,260.70182510875225L79.65560040260775,278.5403564921244L79.97847083951201,261.8898732532616L80.3013412764163,278.0832590129509L80.62421171332056,285.84239254872074L81.2699525871291,289.7100836438206L81.59282302403338,273.0520439392667L82.23856389784193,294.1812529801819L82.56143433474621,288.05499439823956L82.88430477165048,298.24236383629733L83.53004564545903,306.06720427600914L83.8529160823633,321.02779559264724L84.17578651926756,303.1185082123487L84.49865695617184,283.2663762208134L84.82152739307611,290.78471610781975L85.14439782998039,303.24614378738687L85.46726826688466,323.95612354651286L85.79013870378894,301.57139055722314L86.11300914069322,282.7948012403271L86.43587957759748,283.54670392417034L86.75875001450176,320.08827788734203L87.08162045140602,312.1537141310373L87.4044908883103,321.2176432062452L88.05023176211886,317.7192142635518L88.37310219902312,323.01521476456907L88.6959726359274,301.74328297791175L89.01884307283167,309.91018229354165L89.66458394664022,238.02603938695987L89.98745438354449,256.7486257348425L90.31032482044877,295.40323652515895L90.95606569425732,269.57847405131866L91.60180656806585,301.74116201538254L92.2475474418744,314.47614233986303L92.57041787877868,300.33217311833454L92.89328831568295,316.0290475607566L93.21615875258723,268.19680864725854L93.5390291894915,291.52682973383577L94.18477006330004,277.69135322414945L94.50764050020432,285.667666453398L94.8305109371086,303.2937065867771L95.15338137401287,247.50560842275374L95.47625181091715,273.61922538453206L95.79912224782142,265.71763529669784L96.1219926847257,268.9554606288669L96.44486312162996,291.7907736456714L98.05921530615133,330.40264747036855L98.70495617995988,306.05985389574585L99.02782661686416,311.9923063064952L99.6735674906727,297.03020369671884L99.99643792757696,308.8764234394175L100.31930836448124,313.6914634860843L100.64217880138551,309.15633038502574L100.9650492382898,320.25433980779843L101.28791967519406,300.22068090181835L101.61079011209834,306.8891760053524L101.93366054900261,304.1382360835871L102.25653098590688,299.6666545763699L102.57940142281116,325.33993567378064L102.90227185971543,319.4785483880997L103.87088317042826,299.56930497234623L104.19375360733252,276.95774062203594L104.5166240442368,308.70297679112656L104.83949448114107,333.197646739249L105.16236491804534,304.4611461884924L105.80810579185389,313.8937792680727L106.13097622875816,322.00848744907654L106.45384666566243,299.4780692360181L106.7767171025667,336.4632249090475L107.09958753947097,330.3459396301134L107.42245797637526,329.50622738018154L107.74532841327952,332.785767837723L108.0681988501838,330.0261465673057L108.39106928708807,323.2845684188881L108.71393972399233,330.9739506241927L109.03681016089662,317.2668052278639L109.35968059780089,339.0422037149815L109.68255103470517,322.58909879472935L110.00542147160944,329.2699160894757L110.32829190851372,311.973681335945L110.65116234541799,337.59860963982504L111.29690321922654,335.6501835482483L111.61977365613079,332.7886959681783L112.26551452993934,316.0426491990007L112.9112554037479,327.01841561543296L113.55699627755645,323.39810431589797L113.8798667144607,321.1419926804051L114.202737151365,308.07480264608347L114.52560758826925,311.2925689965995L114.84847802517355,313.16052731545807L115.1713484620778,341.65484314081255L115.4942188989821,325.36293137278176L115.81708933588635,332.13440049514367L116.13995977279065,333.17805144980895L116.46283020969491,328.83888841693675L116.78570064659917,321.5715176466986L117.10857108350346,327.6702638240108L117.43144152040772,331.1137108919081L117.75431195731201,273.5252332556052L118.07718239421627,310.0616550830784L118.40005283112056,290.0334660278316L118.72292326802481,323.67651714215367L119.04579370492908,291.9769203084592L119.36866414183336,321.04022082657355L119.69153457873763,307.82634948891473L120.01440501564193,301.37609885357045L120.33727545254618,272.845529166684L120.66014588945048,285.7881749073866L120.98301632635473,310.86919224557295L121.30588676325902,316.09164600949373L121.62875720016328,316.09967475429056L121.95162763706755,312.2607068157101L122.27449807397183,307.8026153171302L122.5973685108761,322.8723202809703L122.92023894778038,340.5539777192151L123.24310938468464,329.6292603806624L123.56597982158894,312.3417155626766L124.21172069539746,308.9026306363374L124.53459113230174,335.26905430994964L125.18033200611029,321.69522901171314L125.50320244301456,338.78898483229165L125.82607287991884,348.8214982450373L126.14894331682311,251.84312277220238L126.47181375372739,214.16874873299517L126.79468419063166,262.54182450455346L127.11755462753592,287.745402564115L127.76329550134447,259.0078715862187L128.08616593824877,267.2866667023278L128.7319068120573,319.27207654998114L129.05477724896159,296.3463693123459L129.37764768586584,310.0869692431438L129.70051812277012,330.94251400953885L130.02338855967437,316.6354195849021L130.66912943348294,306.54906635410686L130.99199987038722,306.054667412476L131.31487030729147,304.2261401054969L131.63774074419578,332.723109280736L132.2834816180043,315.1701178446692L132.6063520549086,312.4611334812756L132.92922249181285,326.8012616826328L133.25209292871713,318.57924310192146L133.5749633656214,314.0342350741074L134.22070423942995,308.1478856909671L134.5435746763342,290.9952667200329L134.86644511323848,297.35204044002023L135.51218598704705,311.547840146676L135.8350564239513,314.9538054273665L136.48079729775986,331.340525079143L137.1265381715684,308.86291625699454L137.44940860847268,301.84632569188227L137.77227904537696,334.39932228268106L138.4180199191855,295.5336628403672L138.74089035608978,328.05882931150103L139.06376079299406,271.6400496297279L139.7095016668026,327.09064855792633L140.03237210370688,311.7044650719113L140.35524254061113,337.0807770676588L140.6781129775154,293.8916686063533L141.0009834144197,287.802677139297L141.32385385132397,333.9545813422912L141.64672428822823,319.7388171098037L142.2924651620368,330.2786183903193L142.93820603584533,328.2954840779201L143.5839469096539,352.79583854909663L144.22968778346242,345.77368367743L145.19829909417524,326.53604691065823L145.52116953107952,337.19486252580987L146.16691040488806,320.158956602233L146.48978084179234,308.19427208603946L146.81265127869662,340.087314441428L147.1355217156009,309.73070764648344L147.45839215250516,334.6803541112501L148.10413302631372,309.9397984869153L148.42700346321797,333.57170037785505L148.74987390012225,230.51027556780284L149.07274433702653,305.19894060741456L149.39561477393082,302.71556826625954L149.71848521083507,327.68206221476044L150.04135564773935,316.6179710186698L150.36422608464363,322.3786855728015L150.6870965215479,301.0795075751918L151.00996695845217,331.08189645396976L151.33283739535645,325.6765332858584L151.65570783226073,331.6432645727886L152.30144870606927,322.95498629825323L152.62431914297355,317.6353289074869L152.9471895798778,269.3515568213698L153.27006001678208,297.3601550537455L153.59293045368636,280.64782042582186L153.91580089059065,289.0631299641563L154.2386713274949,306.4873265946528L154.56154176439918,326.5103721010939L154.88441220130346,330.48354458772826L155.20728263820772,319.60860546691623L155.530153075112,327.1840310174622L155.85302351201625,322.83996486878357L156.17589394892056,333.08761429451414L156.4987643858248,337.1134244342018L156.8216348227291,331.05267525766624L157.14450525963338,322.5552063287259L157.46737569653766,338.28587878133027L157.7902461334419,316.36445159473084L158.11311657034616,340.1406218721221L158.75885744415473,350.65008566026626L159.081727881059,335.35111065784156L160.37320962867608,321.97364183796884L160.6960800655804,316.4790265057732L161.01895050248464,321.2382603359321L161.34182093938892,297.5839294809182L161.66469137629318,322.7129647238148L161.9875618131975,330.9665658963582L162.31043225010174,324.9503311722579L162.63330268700602,319.23245662645945L163.27904356081456,310.8687371402529L163.60191399771884,334.4870545667341L163.9247844346231,334.3535970783566L164.89339574533594,328.8775809560327L165.2162661822402,316.5597948197405L165.86200705604875,335.5381675312695L166.83061836676157,332.5067539289692L167.15348880366585,342.6651426037227L167.4763592405701,328.92913666058934L167.7992296774744,301.33695979604727L168.12210011437867,301.05836664504216L168.44497055128292,325.6529966126089L168.7678409881872,341.62599976779364L169.09071142509148,305.5123364350632L169.41358186199577,320.1043868982928L169.73645229890002,330.5427512137972L170.0593227358043,348.629941839766L170.70506360961284,316.0594623351636L171.02793404651712,309.38951604674116L171.3508044834214,342.41782291640766L171.67367492032568,346.2400034795038L171.99654535722993,325.047002411748L172.31941579413422,340.56467698768233L172.6422862310385,324.3760913010856L173.28802710484703,325.90084010038663L173.6108975417513,333.4532098436817L173.9337679786556,350.57651316249127L174.25663841555985,328.0043969978461L176.1938610369855,347.31892080302555L176.83960191079404,293.36119612793993L177.16247234769833,339.8495605527266L177.4853427846026,333.7566792232179L177.80821322150686,343.8825493348209L178.13108365841114,325.87237455065224L178.45395409531542,336.5066917605574L178.77682453221968,337.0236312958692L179.09969496912396,344.2526272420462L179.42256540602824,344.62975498828564L179.74543584293252,362.49438193897083L180.06830627983678,346.00721281485863L180.39117671674106,341.60272928822195L180.71404715364534,345.14608485420655L181.0369175905496,362.20197247740083L181.35978802745387,349.1106876217957L181.68265846435813,304.341290338359L182.00552890126244,317.14264734442224L182.65126977507097,332.55780300684876L182.97414021197525,344.89465204522554L183.29701064887954,325.37709115905983L183.94275152268804,343.8652038113025L184.26562195959235,327.1845634048177L184.5884923964966,337.9902492349487L184.9113628334009,356.37065649041364L185.23423327030514,333.4788760663532L185.55710370720945,363.84386366870075L185.8799741441137,351.51122220781116L186.20284458101798,348.1154667426966L186.52571501792227,355.0376530080261L186.84858545482652,350.233037449256L187.1714558917308,349.68801877438716L187.49432632863505,333.7922718940019L187.81719676553936,330.1339206592261L188.14006720244362,344.2617207615541L188.4629376393479,349.54553646164436L188.78580807625215,328.14200195546096L189.10867851315643,345.621764369466L189.43154895006072,335.93058853364073L189.75441938696497,342.3633133207172L190.07728982386928,342.5594379529746L190.7230306976778,340.2760285851723L191.04590113458207,346.61904610284455L191.36877157148638,351.606176068735L191.69164200839063,355.76719542293773L192.01451244529488,345.3453952237041L192.33738288219917,302.86466248648213L192.66025331910345,334.1836452954478L192.98312375600773,349.5050406750539L193.30599419291198,347.069849389573L193.6288646298163,349.9142919873737L193.95173506672054,358.2786640774354L194.2746055036248,338.95811227348867L194.59747594052908,334.08523091671304L194.92034637743336,334.0966858317495L195.5660872512419,356.00250204718236L195.88895768814618,367.05266959654784L196.21182812505046,340.29235226844384L196.857568998859,351.8949532746376L197.18043943576328,364.5428796795987L197.50330987266756,344.7383019005608L197.8261803095718,342.62432910209753L198.1490507464761,345.3006317513767L198.47192118338037,336.9322238216845L198.79479162028466,352.3050546893476L199.1176620571889,343.5186024690768L199.4405324940932,327.90276253429977L199.76340293099747,331.6193844238259L200.08627336790173,353.2622957414558L200.409143804806,332.3859964550885L201.05488467861457,359.84427789971863L201.7006255524231,349.8274183926037L202.0234959893274,342.068731375261L202.34636642623164,365.3357590160309L203.31497773694448,357.54634809613935L204.60645948456155,357.53333895350056L204.92932992146584,335.27964194881014L205.25220035837012,354.66031058946584L205.5750707952744,300.5123862381762L205.89794123217865,317.26419481244335L206.22081166908293,321.8038188584525L206.54368210598722,306.0899767157966L206.8665525428915,322.5824783003568L207.8351638536043,334.32571543733474L208.15803429050857,360.5766883368358L208.48090472741285,348.19387366113534L208.80377516431713,323.1883952191822L209.44951603812567,342.09671605899683L209.77238647502992,354.0104030186678L210.09525691193423,366.9389018534315L210.74099778574276,345.87681226032885L211.06386822264705,335.17637597562594L211.3867386595513,360.9598526687354L211.7096090964556,346.23662024372845L212.03247953335986,355.6570170010247L212.35534997026414,371.872767323092L212.67822040716845,359.85493423372174L213.0010908440727,350.39139692684313L213.32396128097696,365.1032946533133L213.64683171788124,340.57214758444525L213.96970215478555,351.1377610648105L214.2925725916898,359.130930364686L214.61544302859406,366.78344903906765L214.93831346549834,369.86583014376566L215.2611839024026,365.4579333272287L215.5840543393069,351.5654398491453L216.5526656500197,364.1961495339805L216.875536086924,355.0216041053252L217.19840652382825,332.4478907786135L217.52127696073254,339.54897636918156L217.8441473976368,315.87365056119614L218.16701783454107,345.3980843981144L218.48988827144538,333.56874648672124L218.81275870834963,305.63921636353234L219.1356291452539,357.8171357615612L219.45849958215817,344.262029889696L219.78137001906248,345.8873827254037L220.10424045596673,347.92515543688575L220.42711089287099,343.6484019411084L220.74998132977527,346.5157543689819L221.39572220358383,346.82719238506513L221.71859264048808,348.08032059033974L222.04146307739236,355.2288315900129L222.36433351429662,336.27481130655224L222.68720395120087,363.3033702863538L223.01007438810518,348.38992959825003L223.33294482500946,351.60688878084L223.65581526191372,361.73174563908896L223.97868569881797,364.27869533476377L224.30155613572228,356.62767936662755L224.62442657262656,353.2899798839425L224.9472970095308,370.2739136386604L225.2701674464351,362.1420531392269L225.59303788333935,351.7201498972793L225.91590832024366,361.28343255128146L226.2387787571479,347.27460384912536L226.5616491940522,365.4156729341615L226.88451963095645,357.4800486965921L227.20739006786076,358.11754820724957L227.530260504765,343.7053845619341L228.17600137857355,367.8041085881783L228.8217422523821,349.38095148675484L229.46748312619064,360.18246408697007L230.4360944369035,357.6460934432628L230.75896487380774,346.09665389058506L231.081835310712,352.30469403984875L231.40470574761628,349.4430003743508L231.7275761845206,360.120063136768L232.05044662142484,367.57576164057303L232.37331705832912,352.0990980647989L232.69618749523337,371.29876788491896L233.01905793213763,357.56879423399926L233.34192836904194,369.15042604790005L233.66479880594622,348.1494364907355L233.98766924285047,362.3073250655429L234.31053967975473,352.6315712892419L235.27915099046757,327.06273256933315L235.60202142737182,361.0279810764556L235.9248918642761,359.904171477214L236.57063273808467,318.0416520893514L236.89350317498892,337.21663888602893L237.2163736118932,362.3440168586092L237.5392440487975,346.59531193106L237.86211448570177,358.8648912509996L238.18498492260602,338.12188630204616L238.5078553595103,346.4914534622705L238.83072579641455,363.1900061272005L239.15359623331886,329.71089597080555L239.7993371071274,356.79619713843357L240.12220754403165,363.06182957791395L240.44507798093596,353.9968099673165L240.76794841784024,351.63062295262455L241.0908188547445,376.06118745231805L241.73655972855303,360.617956943781L242.05943016545734,371.4920760163277L242.3823006023616,373.99961616735527L242.70517103926585,378.8775552040082L243.02804147617013,352.04551585353425L243.35091191307438,372.19282228613105L243.6737823499787,369.12308538112654L243.99665278688295,366.98643889214327L244.31952322378723,356.0975074294633L244.64239366069148,354.7302164840021L244.9652640975958,361.78324982228855L245.28813453450005,346.4466642292646L245.61100497140433,355.8076396881712L245.93387540830858,360.22642039137133L246.57961628211714,355.16871475330385L246.90248671902143,370.7442177590078L247.22535715592568,363.04007039148047L247.54822759282996,358.4271056938028L247.87109802973427,361.7555313322305L248.19396846663852,362.4798958507651L248.51683890354278,363.2355510067755L248.83970934044706,374.5608211352103L249.80832065115987,367.938446233071L250.13119108806416,362.03011440428355L250.77693196187272,350.2456086603604L251.09980239877697,373.71663511411356L251.42267283568125,373.1372516941355L251.7455432725855,376.4056549516753L252.06841370948976,307.0965151196468L252.39128414639407,330.51894834687L253.0370250202026,354.1747904950222L253.35989545710686,357.74553824913727L253.68276589401114,371.568224581952L254.00563633091545,363.62596267622433L254.3285067678197,365.952916177572L254.65137720472399,368.84825758262775L254.97424764162824,365.0094656753502L255.29711807853255,350.2804285107896L255.94285895234108,374.19236615073L256.26572938924534,368.6216494808208L256.5885998261496,371.1008829396313L256.9114702630539,358.94200154862096L257.2343406999582,348.1716851300603L257.55721113686246,366.0517169664841L257.8800815737667,373.0115696372163L258.202952010671,368.94062678880954L258.52582244757525,364.8723072361626L258.84869288447953,360.97933632856865L259.1715633213838,358.8976416602566L259.49443375828804,379.03219655699957L259.8173041951924,360.83449262029734L260.14017463209666,376.1627918617395L260.4630450690009,357.51513474069907L260.78591550590517,373.2524792090331L261.10878594280945,355.2316824384327L261.43165637971373,371.1450238622284L261.754526816618,362.8958105919217L262.07739725352224,373.6557540439426L262.4002676904265,373.09075796290267L262.72313812733086,372.2450907027926L263.0460085642351,361.27073253678464L263.69174943804364,361.92410921228634L264.0146198749479,364.5575203318753L264.3374903118522,367.85599059466244L264.6603607487565,317.0963639920638L264.9832311856607,350.41206557788706L265.306101622565,342.37310237854444L265.6289720594693,359.7841868236881L265.95184249637356,356.2756425212399L266.59758337018206,360.11329666521726L266.92045380708635,341.46411966414587L267.2433242439907,365.34893130963343L267.5661946808949,367.10717060534546L267.8890651177992,364.68255407838575L268.2119355547035,349.5533762947989L268.85767642851204,356.4440658372248L269.18054686541626,371.7607899471309L269.50341730232054,352.26569237261083L269.8262877392248,364.05050724467594L270.4720286130334,367.66585532015466L270.79489904993767,357.92066792842314L271.1177694868419,366.4235423064005L271.44063992374623,346.2045224383266L272.08638079755474,347.51000492919115L272.409251234459,358.81602324389905L272.7321216713633,365.49429452492103L273.0549921082676,325.21269509581265L273.37786254517187,355.52533699946315L273.7007329820761,309.63829550583745L274.0236034189804,349.64541919905315L274.3464738558847,311.76678874007774L274.66934429278894,362.876095085982L274.9922147296932,367.22140204067466L275.3150851665975,365.7991506876494L275.6379556035017,370.0083210434013L275.96082604040606,355.4658727666093L276.60656691421457,346.8272095588508L276.92943735111885,353.8910623821042L277.5751782249274,349.01338095223616L277.8980486618317,360.2223158565982L278.2209190987359,374.7510036376287L278.5437895356402,357.1944142934657L279.18953040944876,364.69244617892696L279.51240084635305,371.31417706410394L279.8352712832573,352.1147090359655L280.15814172016155,363.9796653788212L280.8038825939701,365.37136886060057L281.4496234677787,372.9827649052151L282.09536434158724,355.4615621464082L282.4182347784915,358.30196031768554L282.74110521539575,322.3332866704046L283.06397565230003,345.0595118006856L283.3868460892043,330.297621184154L284.67832783682144,348.59165288463305L285.0011982737257,337.2706762026137L285.32406871062994,336.6330822361351L285.6469391475342,336.18176373583685L285.9698095844385,370.47640545195185L286.61555045824707,352.2505708543357L286.93842089515135,344.1303069536703L287.2612913320556,364.28469757285256L287.58416176895986,368.86249465094136L287.90703220586414,372.0555736845686L288.2299026427684,371.32894651977307L288.5527730796727,361.28640361620097L288.87564351657693,340.00562732992785L289.19851395348127,347.05782773960976L289.52138439038555,362.66440241702225L290.16712526419406,375.5948504764586L290.48999570109834,350.29653752174033L290.8128661380026,365.56323010056735L291.1357365749069,359.63778888781445L291.4586070118111,369.81486693481435L291.7814774487154,352.32519953992886L292.10434788561975,360.68935695766976L292.42721832252397,344.30058503850665L292.75008875942825,360.8377899871444L293.07295919633253,360.1125324317553L293.39582963323676,361.6636601658329L293.7187000701411,365.8405309242014L294.0415705070454,361.92728636263377L294.3644409439496,376.1302732985889L294.6873113808539,369.1697079157518L295.01018181775817,367.1215235967122L295.33305225466245,368.1062985206826L295.97879312847095,361.9612904582441L296.30166356537524,355.02420593385295L296.6245340022796,364.12127182849525L296.9474044391838,365.153983081694L297.2702748760881,358.89175105177463L297.59314531299236,330.5350487709279L297.9160157498966,363.0945885740638L298.2388861868009,360.0624107383015L298.56175662370515,370.8223799510009L298.88462706060943,354.8568388056862L299.2074974975137,369.1737738095072L299.530367934418,362.1681229458615L300.17610880822656,364.71700469242325L300.4989792451308,336.98484430095215L300.82184968203507,343.62079508065716L301.1447201189394,345.12604304633925L301.7904609927479,345.87682943411454L302.1133314296522,348.3301218896829L302.4362018665565,336.4994701836866L302.75907230346075,364.4815005696435L303.081942740365,360.3957023966393L303.40481317726926,360.9985881422955L304.0505540510778,354.7452607202418L304.3734244879821,369.059718405481L305.0191653617906,362.2291585801034L305.34203579869495,376.2417869823372L305.6649062355992,345.31752216957506L305.98777667250346,358.4582417672076L306.31064710940774,361.1220676612036L306.63351754631196,364.32656726229595L307.2792584201206,372.1317265436393L307.9249992939291,352.73164293829296L308.57074016773765,365.97262739006527L308.89361060464194,356.20135731135997L309.2164810415462,346.30238725592017L309.53935147845044,368.3673443561878L309.8622219153548,347.6786085699255L310.5079627891633,362.2479295278317L310.83083322606757,360.81517211142784L311.1537036629718,360.0413728508658L311.7994445367804,364.239384539384L312.12231497368464,363.61552960143484L312.4451854105889,362.49297368854656L312.7680558474932,359.1318491622189L313.41379672130176,371.5280894448604L313.736667158206,372.62260915265585L314.05953759511027,374.894731049832L314.3824080320146,368.6948484487576L314.70527846891883,373.6009052659853L315.0281489058231,336.9307898105818L315.3510193427274,351.26029602550716L315.6738897796317,356.74666794058504L315.99676021653596,359.234917636868L316.31963065344024,370.8597243479224L316.64250109034447,375.4617493441335L316.96537152724875,340.1988753530868L317.6111124010573,374.3728841052672L318.2568532748658,252.18731978443543L318.5797237117701,338.4570069685569L319.22546458557866,366.973249424755L319.54833502248295,328.90366793645296L319.8712054593872,353.4782045747954L320.1940758962915,364.9307324549839L320.5169463331958,360.0483454078445L320.8398167701,371.610111445181L321.1626872070043,371.9520372242603L321.4855576439086,363.87501691589125L321.80842808081286,353.8214827894956L322.13129851771714,362.52394661098754L322.4541689546214,344.0161699741622L322.77703939152565,350.0048235984897L323.42278026533427,371.51857516760384L323.7456507022385,373.8920825084341L324.0685211391428,369.95790310214477L324.39139157604706,355.094017372568L324.71426201295134,363.67781892203004L325.0371324498556,321.2194464537397L325.6828733236641,370.8339164415192L326.3286141974727,363.61167408655376L326.65148463437697,280.5255602456958L327.2972255081855,342.84821515887705L327.6200959450898,323.77914768526836L327.94296638199404,347.5109323136169L328.2658368188983,345.11943972575233L328.5887072558026,350.1970154338305L328.9115776927069,347.8961231522245L329.23444812961117,352.53356908136305L329.8801890034197,368.1128674936982L330.20305944032395,373.5411490787752L330.5259298772283,355.67784021613966L331.1716707510368,363.8852696659313L331.4945411879411,352.5159144297027L331.8174116248453,352.9046945895137L332.14028206174964,358.45069388840926L332.78602293555815,373.22813536785753L333.10889337246243,364.9063113317728L333.4317638093667,350.6665896682872L333.754634246271,375.5952669407609L334.4003751200795,369.2799464459146L334.7232455569838,370.0796008407905L335.04611599388807,369.7277443201522L335.36898643079235,364.9919398270824L335.69185686769663,357.8444936021204L336.0147273046009,343.5234712373119L336.3375977415052,380.33286180098594L336.9833386153137,339.8706156139479L337.306209052218,343.90756295363724L337.62907948912226,346.3481553947087L337.95194992602654,356.1986095056541L338.2748203629308,380.7094185188522L338.5976907998351,368.57809246693614L338.92056123673933,375.6811745100875L339.2434316736436,339.41603409437386L339.5663021105479,273.61658062154015L339.8891725474522,331.37509590968017L340.21204298435646,307.775412040642L340.5349134212607,315.1132726141288L340.857783858165,248.8859514453179L341.1806542950693,312.63212427821696L341.5035247319735,321.30748786593466L341.8263951688778,327.4000171328373L342.1492656057821,327.4918110171995L342.79500647959065,312.68983678493333L343.11787691649494,344.6907734487419L343.44074735339916,335.34827698320737L343.7636177903035,331.17653259985883L344.0864882272077,292.70678902529846L344.409358664112,305.483201107688L345.0550995379205,317.2097023905386L345.37796997482485,305.31280280635207L345.70084041172913,312.61865144336537L346.02371084863336,332.2192475832056L346.34658128553764,354.7707723788423L347.6380630331547,341.4870981893613L347.960933470059,319.9703970225597L348.2838039069633,344.45119055186746L348.60667434386755,337.8929253916035L348.92954478077183,323.6994097984408L349.2524152176761,348.2416940673105L349.5752856545804,322.918543525079L349.8981560914847,331.25833134096587L350.22102652838896,319.81934499077164L350.5438969652932,318.64399686075916L350.86676740219747,349.32798753177394L351.18963783910175,347.6397958143299L351.51250827600603,342.10579240471907L351.8353787129103,322.10636944045575L352.15824914981454,322.3476783027891L352.4811195867188,327.231207406675L352.80399002362316,368.5385884664677L353.1268604605274,318.35959038330753L353.44973089743166,285.3180425248959L353.77260133433595,329.5463711041659L354.0954717712402,308.3699685002521L354.4183422081445,365.7349765440778L354.74121264504873,332.05611379320453L355.064083081953,332.04506246213117L355.3869535188573,308.7159172386227L356.03269439266586,304.3542823072121L356.67843526647437,323.67353749034135L357.0013057033787,349.0460712532433L357.32417614028293,321.8838486996363L357.6470465771872,332.4868151638159L357.9699170140915,331.14710531812744L358.61565788790006,332.61937102844615L359.26139876170856,328.51580657417486L359.58426919861284,313.4505324470354L359.9071396355172,331.0331143157975L360.2300100724214,346.48366515047286L360.87575094622997,363.2926624309937L361.1986213831342,357.8594176218605L361.52149182003853,331.6502285428744L361.84436225694276,308.70456536630024L362.16723269384704,352.16013369904084L362.81297356765555,339.8183471972863L363.1358440045599,336.73038890569467L363.45871444146417,333.6900191741717L363.7815848783684,359.33577069316664L364.42732575217696,335.4915149425193L364.75019618908124,356.4102592401496L365.0730666259855,331.00615147230855L366.04167793669836,347.88978602531535L366.3645483736026,327.8774054397702L366.68741881050687,367.0401413199076L367.01028924741115,358.0160597208814L367.33315968431543,364.9365715421089L367.6560301212197,365.41777672290505L367.978900558124,351.2521384773178L368.3017709950282,355.6608467552273L368.6246414319325,351.9155532305389L368.9475118688368,349.5998142112283L369.27038230574107,346.671778211719L369.59325274264535,353.2335811718293L369.9161231795496,360.75930578667015L370.5618640533582,358.74838428907026L370.8847344902624,353.87636162157776L371.2076049271667,363.53359347004255L371.85334580097526,337.55941906094495L372.17621623787954,349.90470901497446L372.4990866747838,338.51830020958374L372.82195711168805,333.9959272312719L373.14482754859233,341.50006439753594L373.4676979854966,339.9639293783411L373.7905684224009,346.1808569616847L374.1134388593052,348.52032156588695L374.4363092962094,354.9057497472509L374.75917973311374,346.09748681918967L375.082050170018,343.7509208546163L375.7277910438265,357.8876770861669L376.0506614807308,346.7908698283905L376.3735319176351,351.04065189378605L376.6964023545394,353.74836539704063L377.0192727914436,364.9182299390221L377.3421432283479,363.1218176112305L377.6650136652522,324.1217818830062L377.98788410215644,335.52347535763585L378.3107545390607,326.71141702294335L378.633624975965,357.6061558047065L378.95649541286923,337.51419189640467L379.27936584977357,337.3733840277639L379.60223628667785,301.04161361712914L379.9251067235821,333.45585460667365L380.57084759739064,328.51246627286366L380.8937180342949,365.62849048608206L381.2165884711992,361.5660014336673L381.5394589081034,359.98456196789675L381.8623293450077,364.33292156299075L382.18519978191205,351.2944890327597L382.5080702188163,349.2159543410095L383.7995519664334,359.5830302722319L384.1224224033376,372.6011462140251L384.4452928402419,372.6427969377013L384.7681632771462,363.5146507844576L385.41390415095475,358.3241402618677L385.73677458785903,368.3004996889458L386.05964502476326,286.30598171887436L386.38251546166754,324.9280052508976L386.7053858985719,342.0936161906849L387.3511267723804,323.9804416270099L387.67399720928466,330.5649053973009L387.99686764618895,335.7624829326906L388.3197380830932,355.1322719801296L388.64260851999745,355.5327818355475L388.96547895690173,342.4106528608939L389.288349393806,367.56989249932315L389.6112198307103,367.6858885411291L389.9340902676146,334.4394144853084L390.25696070451886,362.78148470077133L390.5798311414231,324.98930707881726L390.9027015783274,327.7047058511555L391.22557201523165,324.8343651845769L391.54844245213593,358.21102512260654L391.8713128890402,354.40665377524164" style="fill: none;" fill="none"></path></g></g></g></g></g></g><g transform="translate(41, 377)" clip-path="url(#clip_1)"><clipPath id="clip_1"><rect width="841" height="23"></rect></clipPath><g><g><line x1="4.749659040816291" y1="0" x2="4.749659040816291" y2="5" style="visibility: inherit;" fill="rgb(0, 0, 0)" stroke="rgb(204, 204, 204)" stroke-width="1px"></line><line x1="69.32374642167099" y1="0" x2="69.32374642167099" y2="5" style="visibility: inherit;" fill="rgb(0, 0, 0)" stroke="rgb(204, 204, 204)" stroke-width="1px"></line><line x1="133.8978338025257" y1="0" x2="133.8978338025257" y2="5" style="visibility: inherit;" fill="rgb(0, 0, 0)" stroke="rgb(204, 204, 204)" stroke-width="1px"></line><line x1="198.47192118338037" y1="0" x2="198.47192118338037" y2="5" style="visibility: inherit;" fill="rgb(0, 0, 0)" stroke="rgb(204, 204, 204)" stroke-width="1px"></line><line x1="263.0460085642351" y1="0" x2="263.0460085642351" y2="5" style="visibility: inherit;" fill="rgb(0, 0, 0)" stroke="rgb(204, 204, 204)" stroke-width="1px"></line><line x1="327.6200959450898" y1="0" x2="327.6200959450898" y2="5" style="visibility: inherit;" fill="rgb(0, 0, 0)" stroke="rgb(204, 204, 204)" stroke-width="1px"></line><line x1="392.19418332594444" y1="0" x2="392.19418332594444" y2="5" style="visibility: inherit;" fill="rgb(0, 0, 0)" stroke="rgb(204, 204, 204)" stroke-width="1px"></line><line x1="456.76827070679917" y1="0" x2="456.76827070679917" y2="5" style="visibility: inherit;" fill="rgb(0, 0, 0)" stroke="rgb(204, 204, 204)" stroke-width="1px"></line><line x1="521.3423580876539" y1="0" x2="521.3423580876539" y2="5" style="visibility: inherit;" fill="rgb(0, 0, 0)" stroke="rgb(204, 204, 204)" stroke-width="1px"></line><line x1="585.9164454685086" y1="0" x2="585.9164454685086" y2="5" style="visibility: inherit;" fill="rgb(0, 0, 0)" stroke="rgb(204, 204, 204)" stroke-width="1px"></line><line x1="650.4905328493633" y1="0" x2="650.4905328493633" y2="5" style="visibility: inherit;" fill="rgb(0, 0, 0)" stroke="rgb(204, 204, 204)" stroke-width="1px"></line><line x1="715.064620230218" y1="0" x2="715.064620230218" y2="5" style="visibility: inherit;" fill="rgb(0, 0, 0)" stroke="rgb(204, 204, 204)" stroke-width="1px"></line><line x1="779.6387076110727" y1="0" x2="779.6387076110727" y2="5" style="visibility: inherit;" fill="rgb(0, 0, 0)" stroke="rgb(204, 204, 204)" stroke-width="1px"></line></g><g transform="translate(0, 8)"><text x="4.749659040816291" y="0" dx="0em" dy="0.95em" style="text-anchor: middle; visibility: inherit; font-family: Roboto, sans-serif; font-size: 12px; font-weight: 200;" fill="rgb(33, 33, 33)" stroke="none" stroke-width="1px">0</text><text x="69.32374642167099" y="0" dx="0em" dy="0.95em" style="text-anchor: middle; visibility: inherit; font-family: Roboto, sans-serif; font-size: 12px; font-weight: 200;" fill="rgb(33, 33, 33)" stroke="none" stroke-width="1px">20k</text><text x="133.8978338025257" y="0" dx="0em" dy="0.95em" style="text-anchor: middle; visibility: inherit; font-family: Roboto, sans-serif; font-size: 12px; font-weight: 200;" fill="rgb(33, 33, 33)" stroke="none" stroke-width="1px">40k</text><text x="198.47192118338037" y="0" dx="0em" dy="0.95em" style="text-anchor: middle; visibility: inherit; font-family: Roboto, sans-serif; font-size: 12px; font-weight: 200;" fill="rgb(33, 33, 33)" stroke="none" stroke-width="1px">60k</text><text x="263.0460085642351" y="0" dx="0em" dy="0.95em" style="text-anchor: middle; visibility: inherit; font-family: Roboto, sans-serif; font-size: 12px; font-weight: 200;" fill="rgb(33, 33, 33)" stroke="none" stroke-width="1px">80k</text><text x="327.6200959450898" y="0" dx="0em" dy="0.95em" style="text-anchor: middle; visibility: inherit; font-family: Roboto, sans-serif; font-size: 12px; font-weight: 200;" fill="rgb(33, 33, 33)" stroke="none" stroke-width="1px">100k</text><text x="392.19418332594444" y="0" dx="0em" dy="0.95em" style="text-anchor: middle; visibility: inherit; font-family: Roboto, sans-serif; font-size: 12px; font-weight: 200;" fill="rgb(33, 33, 33)" stroke="none" stroke-width="1px">120k</text><text x="456.76827070679917" y="0" dx="0em" dy="0.95em" style="text-anchor: middle; visibility: inherit; font-family: Roboto, sans-serif; font-size: 12px; font-weight: 200;" fill="rgb(33, 33, 33)" stroke="none" stroke-width="1px">140k</text><text x="521.3423580876539" y="0" dx="0em" dy="0.95em" style="text-anchor: middle; visibility: inherit; font-family: Roboto, sans-serif; font-size: 12px; font-weight: 200;" fill="rgb(33, 33, 33)" stroke="none" stroke-width="1px">160k</text><text x="585.9164454685086" y="0" dx="0em" dy="0.95em" style="text-anchor: middle; visibility: inherit; font-family: Roboto, sans-serif; font-size: 12px; font-weight: 200;" fill="rgb(33, 33, 33)" stroke="none" stroke-width="1px">180k</text><text x="650.4905328493633" y="0" dx="0em" dy="0.95em" style="text-anchor: middle; visibility: inherit; font-family: Roboto, sans-serif; font-size: 12px; font-weight: 200;" fill="rgb(33, 33, 33)" stroke="none" stroke-width="1px">200k</text><text x="715.064620230218" y="0" dx="0em" dy="0.95em" style="text-anchor: middle; visibility: inherit; font-family: Roboto, sans-serif; font-size: 12px; font-weight: 200;" fill="rgb(33, 33, 33)" stroke="none" stroke-width="1px">220k</text><text x="779.6387076110727" y="0" dx="0em" dy="0.95em" style="text-anchor: middle; visibility: inherit; font-family: Roboto, sans-serif; font-size: 12px; font-weight: 200;" fill="rgb(33, 33, 33)" stroke="none" stroke-width="1px">240k</text></g><line x1="0" y1="0" x2="841.161125" y2="0" fill="rgb(0, 0, 0)" stroke="rgb(204, 204, 204)" stroke-width="1px"></line></g></g></g></g></svg>